<?xml version="1.0" encoding="UTF-8"?>
<svg id="Layer_2" data-name="Layer 2" xmlns="http://www.w3.org/2000/svg" xmlns:xlink="http://www.w3.org/1999/xlink" viewBox="0 0 5082.04 898.75">
  <defs>
    <style>
      .cls-1 {
        fill: url(#linear-gradient-2);
      }

      .cls-2 {
        fill: #fff;
      }

      .cls-3 {
        fill: #262014;
      }

      .cls-4 {
        fill: #9e6c29;
      }

      .cls-5 {
        fill: #5a3f17;
      }

      .cls-6 {
        fill: #3a3829;
      }

      .cls-7 {
        fill: #332714;
      }

      .cls-8 {
        fill: url(#linear-gradient);
      }

      .cls-9 {
        fill: #f3f3f3;
      }
    </style>
    <linearGradient id="linear-gradient" x1="475" y1="898.75" x2="475" y2="0" gradientUnits="userSpaceOnUse">
      <stop offset="0" stop-color="#c7c8ca"/>
      <stop offset="1" stop-color="#484848"/>
    </linearGradient>
    <linearGradient id="linear-gradient-2" x1="475" y1="777.82" x2="475" y2="113.51" gradientUnits="userSpaceOnUse">
      <stop offset="0" stop-color="#000"/>
      <stop offset="1" stop-color="#333"/>
    </linearGradient>
  </defs>
  <g id="Artboard_3" data-name="Artboard 3">
    <g>
      <g>
        <g>
          <path class="cls-8" d="m151.36,898.42c41.03-2.33,46.77-15.23,62.04-30.77,8.25-8.4,35.95-46.72,44.32-58.43,5.95-8.32,10.22-14.07,7.73-19.95l209.55-283.21,209.55,283.21c-2.5,5.88,1.77,11.63,7.73,19.95,8.38,11.71,36.08,50.03,44.32,58.43,15.26,15.54,21.01,28.44,62.04,30.77,49.57,2.82,121.39-13.07,136.12-27.86,17.73-17.79,17.04-39.82,12.56-55.97-10.24-36.89-19.48-57.78-43.16-53.79-23.67,3.99-83.27,43.67-107.04,62.98-23.76,19.31-37.68,24.79-55.25,2.07-17.57-22.72-23.96-30.49-29.2-37.56-4.1-5.54-7.22-11.89-14.39-10.05l-212.34-286.98,192.33-259.94c4.51-1.28,7.86-6.55,11.29-11.18L839.61,28.06c5.78-7.81,4.13-18.83-3.68-24.61-7.81-5.78-18.83-4.13-24.61,3.68l-141.74,200.15c-3.67,4.96-6.42,9.85-5.94,14.24l-188.64,254.96-188.64-254.96c.48-4.39-2.27-9.27-5.94-14.24L138.68,7.13c-5.78-7.81-16.8-9.46-24.61-3.68-7.81,5.78-9.46,16.8-3.68,24.61l150.05,192.08c3.43,4.63,6.78,9.9,11.29,11.18l192.33,259.94-212.34,286.98c-7.17-1.85-10.29,4.51-14.39,10.05-5.24,7.07-11.63,14.84-29.2,37.56-17.57,22.72-31.49,17.24-55.25-2.07-23.76-19.31-83.36-58.99-107.04-62.98-23.67-3.99-32.91,16.9-43.16,53.79-4.48,16.15-5.17,38.18,12.56,55.97,14.73,14.78,86.55,30.67,136.12,27.86Zm646.75-41.33c3.94-2.66,7.98-5.19,12.03-7.69,12.49-7.71,25.23-15.05,38.16-21.99,9.68-5.2,19.39-10.38,29.38-14.95-3.95,2.66-7.98,5.19-12.03,7.69-12.49,7.71-25.23,15.06-38.16,22-9.68,5.19-19.39,10.38-29.38,14.95Zm15.44.33c13.02-6.8,26.28-13.22,39.68-19.25,10.28-4.63,20.6-9.24,31.15-13.21-4.33,2.49-8.75,4.83-13.18,7.14-13.03,6.8-26.27,13.23-39.67,19.26-10.28,4.63-20.6,9.24-31.16,13.2,4.33-2.49,8.75-4.83,13.18-7.14Zm5.14,7.35c12.84-5.57,25.85-10.79,38.97-15.68,11.04-4.12,22.13-8.24,33.42-11.61-5.27,2.58-10.67,4.94-16.05,7.27-12.84,5.56-25.85,10.8-38.97,15.69-11.04,4.12-22.13,8.24-33.43,11.61,5.27-2.58,10.66-4.94,16.05-7.27Zm3.15,8.39c13.53-4.84,27.2-9.32,40.96-13.47,11.58-3.49,23.21-6.98,34.99-9.71-5.58,2.28-11.26,4.33-16.93,6.36-13.53,4.83-27.2,9.33-40.95,13.47-11.58,3.49-23.21,6.98-34.99,9.7,5.57-2.28,11.26-4.33,16.93-6.36Zm64.94-5.25c-14.18,4.09-28.48,7.83-42.84,11.23-12.18,2.88-24.42,5.76-36.76,7.85,5.84-1.97,11.78-3.7,17.71-5.42,14.18-4.1,28.48-7.83,42.84-11.23,12.18-2.88,24.42-5.76,36.76-7.86-5.85,1.97-11.78,3.7-17.71,5.41Zm5.88-89.71c3.69-7.73,25.29-12.97,32.04-.09-8.73-5.29-15.63-2.46-18.18,2.48-3.7,7.18,10.2,23.5,11.35,36.45-12.38-25.53-28.89-31.11-25.2-38.83Zm-152.3,54.39c6.54,7.61,15.59,16.21,26.33,16.15,4.2-.02,8.05-1.57,11.56-3.75,4.98-3.1,9.91-6.29,14.81-9.52,20.02-13.22,39.63-27.33,60.73-38.81,5.09-2.77,10.33-5.5,15.85-7.31,2.49-.81,5.2-1.57,7.85-1.3,1.37.14,2.6.67,3.84,1.23,10.18,4.64,17.92,14.36,23.97,23.46,11.05,16.62,18.3,35.97,20.08,55.87-1-5.43-2.23-10.79-3.94-16.05-4.02-12.3-9.78-24.09-16.97-34.84-6.64-9.93-15.12-20.81-26.6-25.23-2.33-.69-6.26.76-8.77,1.74-4.35,1.71-8.52,3.92-12.61,6.19-8.16,4.54-16.08,9.53-23.95,14.55-14.16,9.05-28.13,18.41-42.36,27.36-3.33,2.09-6.68,4.16-10.06,6.17-2.55,1.52-5.27,2.76-8.17,3.42-7.61,1.73-15.11-.87-21.3-5.3-6.23-4.47-11.16-10.39-15.8-16.42-4.8-6.23-9.49-12.55-14.15-18.89-6.24-8.48-12.42-17.02-18.34-25.73.36.45.73.91,1.09,1.36,12.19,15.28,24.15,30.82,36.89,45.65ZM820.12,14.33c-16.04,24.62-33.15,48.53-50.26,72.41-22.9,31.97-46.51,63.48-70.71,94.47-7.98,10.22-16.01,20.41-24.28,30.4,16.29-24.99,33.66-49.27,51.05-73.5,22.67-31.6,45.99-62.78,69.94-93.42,7.98-10.21,16-20.39,24.26-30.37ZM154.14,44.7c23.95,30.64,47.27,61.82,69.94,93.42,17.39,24.23,34.76,48.51,51.05,73.5-8.27-9.99-16.3-20.18-24.28-30.4-24.2-31-47.81-62.5-70.71-94.47-17.11-23.88-34.22-47.79-50.26-72.41,8.26,9.98,16.28,20.16,24.26,30.37Zm-48.08,834.45c-14.36-3.4-28.66-7.14-42.84-11.23-5.93-1.71-11.86-3.45-17.71-5.41,12.35,2.1,24.58,4.97,36.76,7.86,14.36,3.4,28.66,7.13,42.84,11.23,5.93,1.71,11.86,3.44,17.71,5.42-12.35-2.09-24.58-4.97-36.76-7.85Zm4.03-9.33c-13.75-4.15-27.43-8.64-40.95-13.47-5.67-2.03-11.35-4.08-16.93-6.36,11.79,2.73,23.41,6.22,34.99,9.71,13.76,4.14,27.43,8.63,40.96,13.47,5.67,2.03,11.35,4.08,16.93,6.36-11.79-2.72-23.42-6.22-34.99-9.7Zm3.84-9.38c-13.11-4.89-26.12-10.13-38.97-15.69-5.38-2.33-10.78-4.69-16.05-7.27,11.29,3.37,22.39,7.5,33.42,11.61,13.12,4.89,26.13,10.12,38.97,15.68,5.38,2.33,10.78,4.69,16.05,7.27-11.3-3.37-22.39-7.49-33.43-11.61Zm4.54-9.07c-13.4-6.03-26.65-12.46-39.67-19.26-4.43-2.31-8.85-4.65-13.18-7.14,10.56,3.97,20.87,8.58,31.15,13.21,13.4,6.03,26.65,12.45,39.68,19.25,4.43,2.31,8.84,4.65,13.18,7.14-10.56-3.97-20.87-8.58-31.16-13.2Zm4.04-9.22c-12.93-6.94-25.67-14.29-38.16-22-4.05-2.5-8.09-5.03-12.03-7.69,9.99,4.57,19.7,9.76,29.38,14.95,12.93,6.94,25.67,14.28,38.16,21.99,4.05,2.5,8.09,5.03,12.03,7.69-9.99-4.57-19.7-9.75-29.38-14.95Zm-65.16-63.95c3.69,7.73-12.83,13.3-25.2,38.83,1.15-12.94,15.05-29.27,11.35-36.45-2.55-4.94-9.46-7.77-18.18-2.48,6.75-12.87,28.35-7.64,32.04.09Zm-12.64,34.54c6.05-9.1,13.78-18.81,23.97-23.46,1.24-.57,2.47-1.09,3.84-1.23,2.65-.27,5.35.48,7.85,1.3,5.52,1.81,10.76,4.54,15.85,7.31,21.1,11.48,40.72,25.59,60.73,38.81,4.9,3.23,9.82,6.42,14.81,9.52,3.52,2.18,7.37,3.73,11.56,3.75,10.75.06,19.79-8.54,26.33-16.15,12.74-14.82,24.7-30.37,36.89-45.65.36-.45.73-.91,1.09-1.36-5.92,8.71-12.1,17.25-18.34,25.73-4.66,6.34-9.35,12.65-14.15,18.89-4.64,6.03-9.57,11.95-15.81,16.42-6.18,4.43-13.68,7.03-21.3,5.3-2.91-.66-5.62-1.9-8.17-3.42-3.38-2.01-6.73-4.08-10.06-6.17-14.23-8.94-28.19-18.3-42.36-27.36-7.87-5.03-15.79-10.02-23.95-14.55-4.08-2.27-8.25-4.48-12.61-6.19-2.5-.98-6.44-2.43-8.77-1.74-11.48,4.42-19.96,15.3-26.6,25.23-7.19,10.75-12.95,22.54-16.97,34.84-1.72,5.25-2.94,10.62-3.94,16.05,1.78-19.91,9.03-39.25,20.08-55.87Z"/>
          <g>
            <circle class="cls-2" cx="474.72" cy="445.66" r="326.52"/>
            <path class="cls-1" d="m795.76,531.71c11.17-41.66,14.17-84.39,8.89-127-5.46-44.12-19.59-86.18-41.99-125.01-29.68-51.45-72.56-94-124-123.07-49.93-28.21-106.63-43.12-163.96-43.12-57.92,0-115.21,15.39-165.66,44.5-38.83,22.4-72.11,51.75-98.93,87.21-25.9,34.25-44.69,72.74-55.87,114.4-11.17,41.66-14.17,84.39-8.89,127,5.46,44.12,19.59,86.18,41.99,125.01,29.68,51.45,72.56,94,124,123.07,49.93,28.21,106.63,43.12,163.96,43.12,57.92,0,115.2-15.39,165.66-44.5,38.83-22.4,72.11-51.75,98.93-87.21,25.9-34.25,44.69-72.74,55.87-114.4ZM474.7,125.82c53.67,0,105.61,13.58,151.5,38.23,1.93,2.91,8.15,9.4,10.24,11.34,3.4,3.16,6.5,6.6,9.11,10.45,4.76,7.04,5.8,15.11,9.13,22.74.61,1.39,1.33,2.69,2.12,3.92.64,1.25,1.3,2.47,2.08,3.51,9.86,13.21,13.05,15.62,13.23,21.04-.09,2.63.29,5.33.65,7.92.8,5.76,3.02,10.81,6.06,15.73,1.03,1.67,2.29,3.38,3.73,5.03,7.95,8.1,4.91,13.4,4.69,17.02-.19,3.26-.61,6.38-.45,9.67,1.08,23.09,7.68,29.57,11.44,36.29.02.09.04.17.07.26.18.5.37,1,.55,1.49.14.52.23,1.08.34,1.71,1.8,10.46-7.33,15.76,2.59,46.27,1.4,4.31,2.72,8.49,4.15,12.75,1.44,4.31-.45,9.14-1.47,13.44-1.03,4.38-2.11,8.69-2.44,13.2-1.06,14.34,4.36,26.02,4.65,27.09,1.14,4.15,1.68,7.72,1.53,12.1-.11,3.29-.49,6.02-1,8.3-.4,1.43-.81,2.85-1.23,4.27-.88,2.46-1.81,4.13-2.33,5.29-2.98,6.67-6.48,12.43-13.17,15.07-7.99,3.15-16.78,7.54-24.69,19.55-8.4,12.75-7.71,19.9-8.32,28.01,0,8.38,4.05,18.51-6.59,37.09-2.85,3.54-5.78,7.01-8.78,10.42-.93.72-1.89,1.4-2.9,2-1.71,1.01-8.21,3.26-9.47,3.59-8.07,2.16-16.59,4.87-23.14,10.29-9.37,7.75-10.1,17.2-19.29,23.32-3.21,2.14-6.26,4.11-10.13,4.68-3.17.46-11.74,1.65-19.39,7.7-5.14,4.07-9.73,9.02-13.57,14.32-6.03,6.79-17.61,6.79-21.96,6.28-8-.95-14.54-.2-21.71,3.46-6.89,3.51-12.92,15.16-18.38,18.12-.07-.03-.16-.04-.23-.01-2.93,1.37-5.5,2.98-8.37,4.19-3.39.69-6.81,1.33-10.25,1.91-2.13,0-4.26-.14-6.47-.25-11.28-.58-19.42-5.85-22.71-8.53-7.51-6.1-14.36-12.1-24.25-13.9-9.43-1.71-18.77-.41-27.33,3.9-1.56.78-13.03,8.4-22.11,9.22-8.05.72-15.7-.61-23.19-3.23-3.58-1.25-7.3-2.51-10.49-4.59-2.96-1.93-5.25-4.58-7.63-7.16-3.18-3.44-6.35-5.73-10.17-7.28-5.65-3.73-15.97-4.95-18.65-5.57-6.16-1.43-11.63-3.14-15.32-9.1-2.86-4.93-6.48-9.62-10.81-13.28-.78-.66-1.59-1.27-2.42-1.87-.7-.6-1.42-1.19-2.15-1.73-5.5-4.08-12.32-4.33-17.97-7.77-3.67-2.24-7.21-5.14-9.69-10.43-2.87-6.12-6.85-11.83-11.87-16.38-2.87-2.61-10.87-7.63-16.78-7.74-.89.3-5.77-1.33-6.95-2.48-2.23-2.17-3.31-4.86-3.79-7.81-1.03-3.52-2.29-6.93-4.52-10.2-3.46-5.07-7.83-9.61-13.42-12.28-1.18-.56-2.27-.35-3.08.22-10.04-30.15-15.33-61.15-16.15-92.02.25-1.42.49-2.83.64-4.26.74-7.07.75-14.15.06-21.22-.06-.59-.16-1.2-.24-1.79,1.57-26.67,6.45-53.03,14.5-78.41.31-.34.61-.68.95-.99,1.42-1.29,2.92-.9,3.76.83.4.82.72,1.72.86,2.62.22,1.52.39,3.07.37,4.6-.11,7.89-1.99,15.34-5.07,22.48.1-.16.22-.31.32-.47.64-1.05,1.16-2.18,1.74-3.27,3.89-8.05,6.33-16.5,6.45-25.51.02-1.53-.14-3.08-.37-4.6-.13-.9-.46-1.8-.86-2.62-.84-1.73-2.34-2.12-3.76-.83-1.12,1.02-2.11,2.26-2.92,3.55-.09.14-.15.29-.24.43,23.78-71.93,72.97-135.75,143.6-176.5,48.59-28.03,103.75-42.85,159.51-42.85Zm200.52,69.46c-.75-.27-1.51-.55-2.25-.84.31-1.02-.48-1.38-.99-1.78-2.43-1.9-4.89-3.77-7.37-5.6-6.4-4.73-13.02-9.12-19.75-13.37-.15-.23-.3-.46-.45-.69-.22-.34-.09-.9-.15-1.95,1.55.82,2.58,1.28,3.53,1.86,7.69,4.78,15.25,9.75,22.54,15.13,2.48,1.83,4.94,3.7,7.37,5.6.51.4,1.31.75.99,1.79-1.15.81-2.37.23-3.46-.15Zm40.59,112.62c-.65-6.29-3.01-11.95-6.49-17.17-2.83-4.24-6.3-7.85-10.62-10.59,1.13-.13,2.33-.1,3.59.09,2.57.4,4.95,1.36,7.17,2.71,4.57,2.78,8.21,6.52,11.15,10.94,3.48,5.22,5.84,10.87,6.49,17.17.29,2.79.09,5.54-.71,8.25-1.63,5.54-6.09,8.72-11.81,8.36-2.83-.17-5.44-1.05-8-2.31-.41-.3-.83-.59-1.25-.88,4.73-.44,8.33-3.48,9.77-8.34.8-2.71.99-5.46.71-8.25Zm-19.18,202.26c.11-4.39-.68-8.62-2.59-12.61,0-.01-.01-.02-.02-.03,3.66,1.89,6.75,5.05,8.81,9.33,1.92,3.99,2.7,8.22,2.59,12.61-.19,7.77-2.7,14.77-7.48,20.88-3.17,4.04-7.07,7.19-11.96,8.99-9.47,3.48-18.92-.02-23.82-8.84-.22-.39-.42-.78-.62-1.18,4.61,2.39,10.12,2.75,15.64.72,4.88-1.8,8.79-4.95,11.96-8.99,4.79-6.11,7.29-13.11,7.48-20.88Zm-54.77,92.78c0-2.05-.32-3.97-.87-5.76,7.41,2.44,12.03,8.75,12.06,16.95,0,1.63-.17,3.3-.49,4.9-.85,4.31-2.69,8.18-5.3,11.71-4.68,6.33-10.69,10.77-18.22,13.1-3.28,1.01-6.64,1.42-10.07,1.03-3.32-.37-6.44-1.3-9.18-3.31-3.21-2.35-5.26-5.31-6.34-8.78,1.39.44,2.84.73,4.33.89,3.43.39,6.79-.02,10.07-1.03,7.53-2.32,13.54-6.77,18.22-13.1,2.62-3.53,4.45-7.41,5.3-11.71.32-1.6.5-3.27.49-4.9Zm-303.2,90.17c.47,1.93,1.34,3.67,2.44,5.31,1.79,2.69,4.02,4.98,6.57,6.92,2.04,1.56,4.26,2.89,5.58,3.78,5.73,2.84,10.77,4.55,16.19,5.05,3.32.3,6.59.14,9.77-.97.43-.15.85-.32,1.26-.51-.24.46-.52.9-.85,1.34-1.36,1.78-3.21,2.88-5.29,3.61-3.18,1.1-6.45,1.27-9.77.97-5.41-.5-10.46-2.22-16.19-5.05-1.33-.89-3.54-2.22-5.58-3.78-2.55-1.94-4.78-4.23-6.57-6.92-1.09-1.64-1.97-3.38-2.44-5.31-1.1-4.56.63-8.76,4.74-11.05.28-.16.58-.3.87-.44-1.08,2.06-1.35,4.5-.74,7.05Zm-53.61-35.18c.15,2.62.99,5.04,2.19,7.35,2.07,3.98,4.91,7.35,8.25,10.32,5.08,4.52,10.77,7.92,17.43,9.54,2.11.51,4.27.85,6.43.58,1.52-.18,3.08-.46,4.48-1.04.81-.34,1.53-.76,2.16-1.26-.01.07-.02.14-.03.22-.62,3.08-2.38,5.25-5.23,6.43-1.4.58-2.97.86-4.48,1.04-2.16.26-4.32-.07-6.43-.58-6.67-1.62-12.35-5.03-17.43-9.54-3.34-2.97-6.18-6.33-8.25-10.32-1.2-2.31-2.04-4.73-2.19-7.35-.2-3.47.94-6.25,3.24-8.11-.15.85-.2,1.76-.14,2.73Zm-25.3-6.16c1.74.62,3.45,1.37,5.23,1.81,1.38.34,2.86.49,4.27.4,2.26-.14,4.04-1.03,5.27-2.52-.05.6-.15,1.21-.29,1.81-.83,3.58-3.24,5.76-6.91,5.99-1.41.09-2.9-.06-4.27-.4-1.78-.44-3.49-1.19-5.23-1.81.03-.06.05-.13.08-.19-.64-.34-1.31-.62-1.91-1.01-7.23-4.7-12.92-10.82-16.74-18.56-1.04-2.1-1.78-4.39-2.4-6.66-.63-2.3-.67-4.67.09-7.01.33-1.01.8-1.88,1.4-2.6-.11,1.46.05,2.91.44,4.34.63,2.27,1.36,4.55,2.4,6.66,3.82,7.75,9.51,13.87,16.74,18.56.6.39,1.27.68,1.91,1.01-.03.06-.05.13-.08.19Zm-56.89-62.93c.59,2.4,1.23,4.81,2.16,7.09,3.13,7.62,7.51,14.43,13.71,19.96,1.93,1.72,3.97,3.28,6.56,3.94,1.68.43,3.11.34,4.25-.26-.06.36-.13.72-.23,1.09-.88,3.46-3.33,4.8-6.81,3.9-2.59-.67-4.63-2.23-6.56-3.94-6.2-5.52-10.58-12.33-13.71-19.96-.93-2.28-1.57-4.69-2.16-7.09-.52-2.11-.61-4.29-.1-6.44.41-1.74,1.3-2.96,2.58-3.58-.25,1.77-.12,3.55.31,5.29Zm227.61,174.43s-.08.05-.08.05c-.11-.1-.23-.2-.35-.3.14.08.29.17.43.25Zm351.43-387.53c-.63-7.98-2.5-15.68-5.83-22.97-.19-.42-.4-.82-.61-1.23.37.35.71.73.98,1.14,1.27,1.87,2.54,3.78,3.47,5.83,3.32,7.29,5.2,14.99,5.83,22.97.15,1.95.09,3.92,0,5.87-.07,1.65-.37,3.28-1.16,4.77-1.23,2.33-2.82,2.8-5.65,1.18-.51-.49-1.62-1.3-2.39-2.36-1.17-1.61-2.3-3.28-3.24-5.03.67.71,1.41,1.27,1.8,1.64,2.82,1.63,4.42,1.15,5.65-1.18.79-1.49,1.09-3.12,1.16-4.77.08-1.95.15-3.92,0-5.87Zm-37.68-79.08c-.11-2.04-.35-4.13-.93-6.08-2.24-7.56-5.87-14.28-10.94-20.11.3.25.6.5.89.77,7.29,6.73,12.29,14.9,15.1,24.39.58,1.95.82,4.04.93,6.08.07,1.3-.2,2.69-.64,3.92-.68,1.93-2.23,3-4.29,2.92-1.31-.06-2.68-.32-3.89-.81-1.41-.58-2.79-1.37-4-2.31-2.51-1.97-4.75-4.12-6.73-6.43.55.47,1.11.93,1.68,1.38,1.2.94,2.58,1.73,4,2.31,1.21.49,2.58.76,3.89.81,2.06.09,3.61-.99,4.29-2.92.44-1.24.71-2.62.64-3.92Zm-2.98,286.52c.52-.12,1.05-.29,1.58-.51,1.32-.57,2.66-1.4,4.2-2.63,1.98-1.57,3.74-3.56,5.38-6.09,4.5-6.91,7.37-13.62,8.77-20.52.62-3.05.84-5.77.69-8.32-.02-.27-.04-.53-.06-.79.52.35.96.86,1.33,1.52.67,1.19,1.04,2.61,1.15,4.47.14,2.33-.07,4.83-.64,7.65-1.33,6.57-4.07,12.98-8.39,19.6-1.49,2.28-3.06,4.07-4.81,5.46-1.36,1.08-2.5,1.8-3.6,2.27-.74.32-1.44.48-2.08.48-1.87,0-2.93-1.37-3.51-2.59Zm3.56,22.02l.07-.14c.36-.85.72-1.7,1.08-2.55.87-2.06,1.78-4.18,2.58-6.32.42-1.11.68-2.24.87-3.28.31-.1.62-.17.92-.22.87-.13,1.46-.06,1.69,1.1.16.79.19,1.61.08,2.29-.21,1.33-.47,2.87-.98,4.23-.78,2.08-1.67,4.18-2.53,6.2-.36.84-.71,1.67-1.06,2.51-3.1,5.52-6.32,10.15-9.84,14.15-1.27,1.45-2.83,2.92-4.76,4.5-.67.55-1.6,1.01-2.84,1.41-.17.05-.33.08-.48.08-.62,0-.9-.47-1.03-.87-.24-.76-.37-1.68-.38-2.64,0-.03,0-.06,0-.09.52-.28.96-.57,1.36-.89,2.04-1.67,3.7-3.24,5.07-4.8,3.66-4.16,6.99-8.96,10.2-14.67Zm42.6-143.74c-.12-1.41-.29-2.65-.53-3.79.12.11.24.24.37.41.42.54.8,1.24,1.17,2.13.75,1.78,1.18,3.79,1.41,6.52.56,6.75.05,13.64-1.52,20.46-.57,2.5-1.45,5-2.29,7.43l-.24.68c-.58,1.67-1.55,3.08-2.89,4.22-1.06.9-1.89.88-2.82-.13-.68-.74-1.17-1.46-1.47-2.15-.01-.02-.02-.05-.03-.07.33-.18.65-.41.97-.68,1.71-1.44,2.94-3.25,3.68-5.37l.24-.7c.87-2.49,1.76-5.06,2.37-7.69,1.63-7.09,2.16-14.25,1.57-21.27Zm-2.72,56.48c-.88,8-3.05,16.07-6.44,23.99-.86,2-1.92,3.92-3.15,5.72l-.15.22c-.76,1.12-1.36,1.92-2.12,1.92-.13,0-.27-.02-.43-.06-.92-.25-1.15-1.09-1.43-2.83l-.02-.1c-.05-.29-.09-.58-.12-.87.49-.52.89-1.1,1.25-1.63l.14-.21c1.33-1.94,2.47-4.01,3.4-6.17,3.5-8.16,5.73-16.48,6.64-24.74.12-1.12.15-2.24.14-3.24.03-.02.06-.04.08-.06.36-.25.69-.38.94-.38.48,0,.79.67.94,1.08.25.71.4,1.4.41,2v.29c.05,1.69.09,3.43-.09,5.07Zm-16.09,5.04c-1.13,2.67-2.63,5.13-4.47,7.37-1.51,1.85-3.23,3.48-5.41,4.51-3.3,1.56-6.5.92-8.99-1.75-.83-.89-1.48-1.88-2.02-2.93,1.85.72,3.88.61,5.96-.37,2.19-1.04,3.9-2.67,5.41-4.51,1.84-2.24,3.34-4.7,4.47-7.37,2.58-6.13,4.11-12.5,4.13-19.19.01-3.32-.35-6.58-1.47-9.72-.19-.53-.41-1.03-.65-1.53,1.2.43,2.31,1.19,3.28,2.31,1.1,1.26,1.85,2.71,2.41,4.28,1.12,3.15,1.48,6.4,1.47,9.72-.02,6.69-1.55,13.06-4.13,19.19Zm-27.46-21.6c-.51.85-1.13,2.04-1.89,3.14-2.38,3.46-5.3,6.33-9.23,7.98-5.47,2.3-10.48,1.41-14.99-2.41-1.05-.89-1.96-1.89-2.76-2.97,2.62.52,5.37.21,8.26-1.01,3.92-1.65,6.85-4.52,9.23-7.98.76-1.1,1.38-2.29,1.89-3.14,3.94-7.84,5.16-15.75,3.74-24.05-.64-3.7-1.91-7.18-4.09-10.26-.05-.08-.11-.15-.17-.22.59.11,1.17.24,1.77.43,3.4,1.08,5.89,3.35,7.89,6.18,2.18,3.08,3.46,6.56,4.09,10.26,1.42,8.3.2,16.21-3.74,24.05Zm-12.61-98.16c-1.25-2.33-2.84-4.38-4.78-6.12,2.79.05,5.68.95,8.5,2.87,3.06,2.07,5.42,4.77,7.15,7.98,5.34,9.91,6.04,20.2,2.16,30.76-1.15,3.12-2.97,5.87-5.41,8.19-6.03,5.73-13.84,5.49-19.77,1.11-.64-.47-1.24-.98-1.82-1.5,3.71.09,7.47-1.25,10.72-4.33,2.44-2.32,4.27-5.06,5.41-8.19,3.88-10.56,3.17-20.85-2.16-30.76Zm-17.54-66.95c3.13-.72,6.56-.31,9.94,1.34,2.81,1.38,5.21,3.31,7.3,5.63,5.89,6.53,8.9,14.27,9.53,22.98.32,4.38-.29,8.65-2.07,12.7-3.27,7.43-9.99,10.71-17.36,8.5-1.18-.35-2.31-.87-3.53-1.33-.09-.06-.19-.13-.29-.19,4.35-.91,8-3.99,10.16-8.88,1.78-4.04,2.38-8.32,2.07-12.7-.63-8.7-3.64-16.45-9.53-22.98-1.82-2.01-3.87-3.74-6.22-5.06Zm42.81-12.5c4.37,6.15,7.17,12.95,8.41,20.39.51,3.06.66,6.14.19,9.23-.28,1.85-.76,3.63-1.74,5.24-1.71,2.8-4.4,4.01-7.63,3.42-2.18-.39-4.08-1.39-5.81-2.74-.06-.05-.12-.1-.18-.15.06.01.11.03.17.04,3.24.58,5.92-.62,7.63-3.42.98-1.61,1.47-3.39,1.74-5.24.46-3.09.32-6.16-.19-9.23-1.25-7.44-4.04-14.24-8.41-20.39-1.45-2.04-3.17-3.84-5.11-5.41.25.04.5.06.76.12,1.64.38,3.07,1.18,4.39,2.18,2.23,1.69,4.16,3.69,5.78,5.97Zm12.75,57.1c3.24,6.48,4.69,13.39,4.63,20.62-.03,3.74-.65,7.38-1.93,10.9-.72,1.98-1.82,3.71-3.3,5.17-2.03,2-4.5,2.98-7.33,2.38-1.38-.29-2.75-.89-3.97-1.62-1.95-1.15-3.53-2.68-4.88-4.43.98.5,2.04.91,3.1,1.14,2.83.6,5.3-.38,7.33-2.38,1.48-1.46,2.59-3.2,3.3-5.17,1.28-3.52,1.9-7.16,1.93-10.9.07-7.24-1.38-14.14-4.63-20.62-.83-1.66-1.77-3.25-2.9-4.69.58.28,1.15.62,1.73,1.03,3.13,2.2,5.25,5.22,6.92,8.57Zm7.7,66.54c.85,7.5.11,14.8-2.82,21.8-1.29,3.08-3.05,5.85-5.76,7.88-3.34,2.51-6.87,2.57-10.32.28-1.17-.77-2.14-1.7-2.99-2.72,2.5.7,5.02.17,7.43-1.64,2.71-2.04,4.48-4.81,5.76-7.88,2.93-7,3.67-14.3,2.82-21.8-.46-4.02-1.45-7.9-3.34-11.5-.56-1.06-1.18-2.06-1.91-2.99,1.23.31,2.43.9,3.59,1.8,1.84,1.42,3.14,3.25,4.2,5.27,1.89,3.61,2.88,7.48,3.34,11.5Zm12.2-41.72c1.67,2.65,2.53,5.63,3.21,8.66,1.29,5.76,1.81,11.6,1.58,17.5-.16,3.92-.62,7.8-1.96,11.53-.53,1.48-1.26,2.83-2.46,3.86-1.24,1.07-2.56,1.19-4.01.43-1.26-.67-2.18-1.69-2.98-2.84.99.18,1.92-.09,2.81-.85,1.2-1.04,1.93-2.38,2.46-3.86,1.33-3.73,1.8-7.61,1.96-11.53.23-5.9-.29-11.74-1.58-17.5-.68-3.03-1.54-6.01-3.21-8.66-.08-.13-.17-.25-.25-.37.7.04,1.4.31,2.05.85.93.77,1.73,1.77,2.38,2.79Zm-66.32,229.48c-.5,1.62-1.11,3.25-1.7,4.83-.24.65-.48,1.29-.72,1.94-1.88,3.18-4,6.14-6.46,9.04-3.97,4.68-7.73,8.04-11.84,10.57-2.1,1.29-3.8,2.03-5.5,2.38-.55.11-1.07.17-1.54.17h0c-1.2,0-2.75-.3-3.29-2.58.11-.02.21-.04.32-.06,2.02-.42,3.98-1.26,6.35-2.72,4.35-2.68,8.32-6.21,12.47-11.11,2.55-3.01,4.83-6.21,6.78-9.51l.1-.22c.25-.68.5-1.36.76-2.05.6-1.61,1.22-3.28,1.75-4.96.17-.56.29-1.14.36-1.73,1.26.2,1.96.94,2.31,2.42.28,1.17.23,2.4-.14,3.58Zm-39.78,35.81c-.59,2.27-1.34,4.03-2.36,5.54-5.2,7.72-12.22,13.67-20.87,17.69-2.34,1.09-4.53,1.75-6.69,2.03-1.76.23-3.07.13-4.27-.29-1.23-.44-2.06-1.09-2.53-2,.64,0,1.34-.04,2.09-.14,2.43-.32,4.87-1.05,7.46-2.26,9.1-4.23,16.48-10.49,21.95-18.61,1.18-1.76,2.05-3.78,2.72-6.34.13-.51.22-1.05.26-1.64,1.58.65,2.4,1.97,2.44,3.93.02.8-.05,1.51-.2,2.09Zm-188.36,54.66c.67,1.11,1.59,2.14,2.79,3.04.9.68,1.91,1.21,2.87,1.8,2.51,1.29,5.2,2,7.96,2.38,8.15,1.12,16.01.02,23.55-3.27,3.43-1.5,6.55-3.47,9.01-6.35.47-.55.93-1.1,1.31-1.71.5-.8.88-1.61,1.16-2.42,1.81,3.03,1.71,6.54-.43,9.98-.38.61-.84,1.16-1.31,1.71-2.46,2.88-5.58,4.85-9.01,6.35-7.54,3.29-15.4,4.39-23.55,3.27-2.76-.38-5.45-1.1-7.96-2.38-.96-.6-1.97-1.13-2.87-1.8-3.62-2.72-4.86-6.62-3.52-10.6Zm2.14,27.63c.44,1.01,1.48,1.89,3.15,2.57,1.88.76,3.94,1.24,5.96,1.43,9.99.96,19.7-.39,29.06-4.02,1.7-.66,3.34-1.63,4.8-2.73.45-.34.84-.69,1.16-1.05.75,1.59.08,3.34-2.08,4.98-1.46,1.11-3.1,2.07-4.8,2.73-9.36,3.63-19.07,4.98-29.06,4.02-2.02-.19-4.09-.67-5.96-1.43-3.6-1.46-4.33-3.86-2.23-6.5Zm-52.86,6.24c-1.12.48-2.34.85-3.55.99-2.34.26-4.71.48-7.07.42-6.61-.16-13.09-1.23-19.41-3.19-3.05-.95-6.01-2.11-8.75-3.8-1.15-.71-2.18-1.56-2.92-2.69-.85-1.29-.84-2.55.27-3.65.36-.36.77-.69,1.21-.98.1.36.26.73.5,1.1.75,1.14,1.77,1.98,2.92,2.69,2.73,1.69,5.69,2.85,8.75,3.8,6.32,1.97,12.8,3.03,19.41,3.19,2.35.06,4.72-.16,7.07-.42,1.21-.13,2.43-.5,3.55-.99.21-.09.41-.19.59-.29.37,1.57-.49,2.91-2.58,3.81Zm-88.59-31.51c.85,1.38,2.01,2.6,3.2,3.72,2.41,2.29,5.36,3.8,8.26,5.35,5.35,2.75,10.99,4.7,16.91,5.7,2.52.42,5.11.53,7.67.57,1.2.02,2.45-.23,3.62-.58-.48,1.16-1.59,2.06-3.31,2.62-1.26.41-2.62.7-3.93.67-2.56-.04-5.15-.15-7.67-.57-5.92-1-11.56-2.95-16.91-5.7-2.9-1.55-5.85-3.07-8.26-5.35-1.18-1.12-2.35-2.34-3.2-3.72-1.68-2.73-.88-5.33,2.03-6.62.35-.15.71-.29,1.07-.41-.59,1.26-.44,2.77.52,4.33Zm-70.7-38.22c1.41.53,3.49,1.41,5.63,2.09,1.05.33,2.23.43,3.34.39.14,0,.27-.03.41-.05,0,.14,0,.28,0,.42-.05,2.26-1.42,3.64-3.68,3.73-1.11.04-2.29-.05-3.34-.39-2.15-.68-4.23-1.56-5.63-2.09-8.44-5.02-15.24-10.73-20.59-18.06-1.02-1.4-1.82-2.98-2.6-4.54-.41-.81-.67-1.74-.82-2.64-.47-2.81.63-4.45,3.18-4.9.02.26.03.52.08.8.15.9.41,1.82.82,2.64.78,1.56,1.58,3.14,2.6,4.54,5.35,7.33,12.15,13.05,20.59,18.06Zm51.85,30.41c1.92.39,3.87.57,5.83.2.37-.07.72-.17,1.05-.28-.26,2.01-1.7,3.36-4.15,3.83-1.95.38-3.91.19-5.83-.2-5.19-1.05-9.99-3.14-13.19-4.84-4.94-2.97-8.41-5.17-11.47-7.96-1.99-1.81-3.9-3.69-5.26-6.02-.72-1.22-1.32-2.58-1.62-3.96-.48-2.2.42-3.87,2.5-4.73.16-.07.33-.12.49-.18-.02.43,0,.88.11,1.36.3,1.38.91,2.74,1.62,3.96,1.36,2.32,3.27,4.21,5.26,6.02,3.06,2.79,6.53,4.99,11.47,7.96,3.2,1.71,7.99,3.8,13.19,4.84Zm45.46-45.69c.13.4.28.81.44,1.22,1.47,3.61,3.81,6.62,6.8,9.05,7.69,6.26,16.52,9.08,26.42,8.37,3.85-.28,7.52-1.29,10.85-3.3,2.66-1.61,4.81-3.64,6.22-6.24.88,2.73,1.09,5.53.39,8.42-1.05,4.38-3.82,7.46-7.57,9.72-3.32,2.01-7,3.02-10.85,3.29-9.9.71-18.73-2.12-26.42-8.37-2.99-2.43-5.33-5.44-6.8-9.05-1.88-4.63-1.75-9.02.51-13.12Zm52.91,57.13c1.92-.55,3.66-1.47,5.18-2.76.26,2.46-.46,4.67-2.34,6.58-1.71,1.74-3.76,2.91-6.06,3.58-1.87.54-3.8,1.01-5.74,1.19-8.42.8-16.4-.86-22.58-3.92-5.01-2.55-7.31-4.21-9.35-6.47-1.4-1.55-2.53-3.26-3.08-5.3-.71-2.66-.26-5.07,1.46-7.27.46-.59.96-1.11,1.5-1.58.05.48.13.97.26,1.46.54,2.04,1.68,3.75,3.08,5.3,2.04,2.25,4.34,3.92,9.35,6.47,6.18,3.07,14.16,4.72,22.58,3.92,1.94-.18,3.86-.65,5.74-1.19Zm4.98-29.19c1.31,2.56,3.26,4.6,5.59,6.26,1.17.83,2.44,1.53,3.89,2.43,10.28,4.6,20.86,5.15,31.53.56,2.87-1.24,5.35-3.07,7.37-5.49.66-.78,1.21-1.6,1.66-2.44,2.49,4.86,1.88,10.02-1.66,14.25-2.02,2.42-4.5,4.26-7.37,5.49-10.68,4.59-21.26,4.05-31.53-.56-1.45-.9-2.72-1.6-3.89-2.43-2.38-1.7-4.37-3.78-5.68-6.42-1.99-4.02-1.93-7.91.09-11.64Zm52.24,38.47c.07-.09.12-.18.19-.26.03.04.06.07.08.11,1.58,2.55,1.38,5.12-.5,7.43-1.2,1.46-2.67,2.62-4.38,3.34-1.99.84-4.02,1.64-6.1,2.15-6.28,1.55-12.65,1.6-19.03.65-3.79-.57-7.49-1.44-10.93-3.22-1.05-.65-2.12-1.27-3.13-1.98-.58-.41-1.1-.94-1.57-1.48-2.33-2.64-2.55-5.67-.55-8.31.23.35.49.69.79,1.03.48.54.99,1.07,1.57,1.48,1.01.71,2.08,1.33,3.13,1.98,3.44,1.77,7.15,2.65,10.93,3.22,6.38.95,12.74.9,19.03-.65,2.09-.51,4.12-1.32,6.1-2.15,1.72-.72,3.19-1.88,4.38-3.34Zm-.24-54.82c1.27,1.51,2.82,2.88,4.68,4.06,2.55,1.61,5.32,2.74,8.27,3.36,9.74,2.04,18.86.43,27.28-4.86,3.45-2.17,6.24-5.02,8.28-8.6,1.39-2.45,2.13-5.01,2.25-7.54,4.39,5.28,5.08,12.24,1.54,18.46-2.03,3.58-4.83,6.43-8.28,8.6-8.42,5.29-17.54,6.91-27.28,4.86-2.95-.62-5.72-1.75-8.27-3.36-5.8-3.66-8.76-9.16-8.47-14.98Zm55.69,56.1c1.71.61,3.6.84,5.43,1.02,2.67.26,5.34-.07,7.99-.5,7.19-1.17,13.94-3.54,20.19-7.31,1.95-1.18,3.76-2.54,5.23-4.28.72-.86,1.39-1.8,1.9-2.79.34-.67.56-1.33.65-1.96,1.55,1.6,1.83,3.65.67,5.92-.51,1-1.18,1.94-1.9,2.79-1.47,1.74-3.28,3.11-5.23,4.28-6.25,3.77-13.01,6.14-20.19,7.31-2.65.43-5.32.76-7.99.5-1.83-.18-3.71-.41-5.43-1.02-3.27-1.17-4.72-3.16-4.36-5.74.73.71,1.73,1.31,3.04,1.78Zm-.12-37.23c.08-.46.19-.91.32-1.36,1.25,2.83,3.77,5.06,7.19,6.42,3.21,1.28,6.58,1.74,10.01,1.58,9.6-.46,18.11-3.72,25.3-10.18,2.55-2.3,4.6-4.96,5.88-8.22.16-.41.29-.82.41-1.24,1.3,2.93,1.09,6.15-.02,8.97-1.28,3.26-3.32,5.92-5.88,8.22-7.19,6.46-15.69,9.72-25.3,10.18-3.43.16-6.8-.3-10.01-1.58-5.69-2.26-8.9-6.9-7.9-12.79Zm1.03-46.41c2.06,2.04,4.67,3.65,7.72,4.63,4.51,1.44,9.09,1.74,13.73.93,8.64-1.51,15.88-5.51,21.51-12.31.46-.55.9-1.13,1.29-1.73.62-.95,1.19-1.93,2.13-3.49.42-1.21,1.21-3.02,1.66-4.91.31-1.29.47-2.57.52-3.82,4.37,4.26,6.19,10.38,4.64,16.87-.45,1.89-1.24,3.69-1.66,4.91-.95,1.56-1.52,2.54-2.13,3.49-.39.6-.83,1.18-1.29,1.73-5.62,6.8-12.87,10.8-21.51,12.31-4.64.81-9.22.52-13.73-.93-8.13-2.61-13.14-9.59-12.88-17.68Zm54.81,62.83c6.31-1.09,12.42-3.58,18.68-7.6,3.72-2.39,6.52-4.73,8.78-7.36,1.64-1.91,3.28-4.05,4.1-6.75.18-.59.3-1.16.38-1.71,2.34,1.29,3,3.16,2.15,5.99-.68,2.24-2.12,4.11-3.57,5.8-2.1,2.43-4.7,4.61-8.21,6.87-5.95,3.82-11.74,6.19-17.7,7.22-3.23.56-5.66.48-7.94-.24-1.32-.42-2.29-1.06-2.89-1.92,1.87.21,3.88.12,6.23-.28Zm-.69-36.62c1,.52,2.11.93,3.32,1.22,3.8.91,7.59.66,11.33-.3,7.92-2.02,14.58-6.16,20.01-12.24,2.49-2.79,4.51-5.88,5.7-9.47.69-2.08,1.07-4.2.89-6.39-.13-1.63-.52-3.08-1.15-4.36,3.66,1.95,5.84,5.04,6.19,9.41.18,2.18-.2,4.3-.89,6.39-1.2,3.59-3.21,6.68-5.7,9.47-5.43,6.08-12.09,10.22-20.01,12.24-3.74.96-7.53,1.21-11.33.3-3.97-.95-6.85-3.18-8.37-6.27Zm55.6-30.86c2.6.36,5.18.12,7.62-.74,2.32-.82,4.63-1.77,6.76-2.99,6.78-3.9,11.86-9.47,15.57-16.33,1.4-2.56,2.34-5.28,2.84-8.14.34-1.95.4-3.89.06-5.84-.19-1.08-.5-2.07-.91-2.98,3.2,1.47,5.31,4.26,5.96,8.03.34,1.95.28,3.9-.06,5.84-.5,2.87-1.45,5.58-2.84,8.14-3.71,6.85-8.79,12.43-15.57,16.33-2.13,1.22-4.44,2.17-6.76,2.99-2.44.86-5.02,1.1-7.62.74-3.96-.55-6.9-2.66-8.45-6.02,1.03.47,2.17.8,3.41.97Zm1.97-56.3c1.26.29,2.61.46,4.05.48,3.79.04,7.31-1.1,10.61-2.91,6.92-3.81,11.84-9.5,15.15-16.57,1.71-3.65,2.8-7.51,3-11.59.13-2.61-.07-5.18-.78-7.67,5,1.19,8.83,4.62,10.73,9.75,1.09,2.94,1.4,5.99,1.24,9.11-.2,4.07-1.29,7.94-3,11.59-3.32,7.08-8.23,12.77-15.15,16.57-3.3,1.81-6.81,2.95-10.61,2.91-6.74-.08-11.56-3.2-14.37-9.34-.35-.76-.64-1.54-.88-2.33Zm52.32,18.81c3.82-2.15,6.96-5.09,9.71-8.46,4.21-5.18,7.34-10.91,8.91-17.44.63-2.62.93-5.27.61-7.96-.14-1.21-.42-2.31-.8-3.29,3.2,1.07,5.33,3.97,5.85,8.34.32,2.69.02,5.34-.61,7.96-1.57,6.53-4.7,12.26-8.91,17.44-2.75,3.38-5.9,6.31-9.71,8.46-2.17,1.23-4.47,2.11-7,2.19-3.66.11-6.36-1.47-7.98-4.74-.12-.25-.23-.5-.33-.76.99.32,2.07.49,3.26.45,2.54-.08,4.83-.96,7-2.19Zm-1.99-50.58c1.99.57,4.16.59,6.4.04,2.96-.73,5.51-2.25,7.85-4.16,2.66-2.17,4.85-4.78,6.66-7.66,3.8-6.03,5.99-12.62,6.31-19.78.11-2.48-.11-4.94-.71-7.35-.4-1.6-.96-3.12-1.76-4.53,2.19.62,4.1,1.89,5.72,3.87,1.6,1.95,2.57,4.2,3.18,6.63.6,2.41.82,4.87.71,7.35-.32,7.16-2.51,13.74-6.31,19.78-1.81,2.88-4,5.48-6.66,7.66-2.34,1.91-4.89,3.42-7.85,4.16-5.05,1.26-9.78-.43-12.75-4.71-.29-.41-.55-.85-.8-1.29Zm-24.54-326.87c-2.21-1.33-4.62-2.3-7.19-2.68-.15-.02-.3-.04-.44-.06,1.09-2.11,2.96-3.43,5.56-3.73,1.21-.14,2.47-.07,3.68.11,2.57.38,4.98,1.35,7.19,2.68,8.05,4.86,14.13,11.55,18.22,20.03,1.08,2.23,1.85,4.58,2.19,7.05.25,1.85.26,3.68-.27,5.5-.78,2.72-2.55,4.4-5.24,5.13-1.4.38-2.81.39-4.23.22.27-.51.51-1.06.68-1.67.52-1.82.52-3.66.27-5.5-.34-2.47-1.11-4.82-2.19-7.05-4.09-8.47-10.16-15.17-18.21-20.03Zm-19.47-38.11c-1.89-1.09-3.95-1.92-6.02-2.65.3-1.73,1.59-2.8,3.48-2.85,1.32-.04,2.72.08,3.95.51,2.23.78,4.46,1.66,6.5,2.83,5.66,3.26,10.66,7.4,15.12,12.16,2.54,2.71,4.9,5.6,6.43,9.03.54,1.21.97,2.52,1.13,3.82.31,2.44-.93,3.91-3.38,4.3-1.57.24-3.13.09-4.62-.37.14-.52.18-1.1.09-1.76-.16-1.3-.59-2.62-1.13-3.82-1.53-3.43-3.89-6.31-6.43-9.03-4.46-4.77-9.46-8.9-15.12-12.16Zm64.72,50.83c.9,1.49,1.63,3.1,2.28,4.71.41,1.03.66,2.18.75,3.29.15,1.9-.98,3.01-2.83,2.68-1.5-.26-2.93-.86-3.91-1.16-1.31-.87-2.18-1.43-3.02-2.02-3.38-2.36-6.35-5.16-9.07-8.22,1.28,1.12,2.61,2.19,4.02,3.17.84.59,1.71,1.14,3.02,2.02.98.3,2.41.9,3.91,1.16,1.85.32,2.98-.79,2.83-2.68-.09-1.11-.34-2.25-.75-3.29-.65-1.62-1.38-3.23-2.28-4.71-2.89-4.79-6.17-9.26-9.89-13.35,5.88,5.37,10.81,11.56,14.94,18.4Zm45.67,81.19c.49,1.88.73,3.84.91,5.78.09.99-.11,2.06-.38,3.03-.33,1.16-1.27,1.58-2.42,1.29-.4-.1-.78-.24-1.49-.46-.99-.94-2.26-1.99-3.34-3.22-.4-.45-.78-.92-1.16-1.39.55.18.9.3,1.25.39,1.15.29,2.09-.12,2.42-1.29.28-.97.47-2.03.38-3.03-.18-1.94-.42-3.9-.91-5.78-2.33-8.92-5.94-17.31-10.91-25.08-.17-.26-.35-.52-.54-.78.47.2.97.53,1.5,1.01,1.44,1.28,2.73,2.83,3.77,4.45,4.98,7.77,8.59,16.16,10.91,25.08Zm-615.08,56.79c.2-.38.4-.76.6-1.14-.2.38-.4.76-.6,1.14Z"/>
            <path d="m547.08,519.09c3.64-6.93,9.04-11.95,16.31-14.87,7.52-3.02,15.15-3.16,22.54.24,6.7,3.08,11.27,7.8,13.8,13.94-7.32-3.28-14.86-3.12-22.3-.14-7.27,2.92-12.67,7.94-16.31,14.87-2.93,5.54-4.07,11.43-3.35,17.64.33,2.84,1.07,5.53,2.15,8.01-8.68-3.74-15.02-11.92-16.19-22.05-.72-6.21.41-12.1,3.35-17.64Z"/>
            <path d="m610.37,448.13c-11.4-9.68-13.67-26.58-7.21-38.24.48-.91.9-1.86,1.44-2.73,5.56-8.89,16.11-13.6,26.34-11.67,5.4,1.02,10.06,3.57,14,7.39,2.56,2.48,4.63,5.41,6.17,8.61-1.93-.88-3.96-1.55-6.13-1.95-10.23-1.93-20.78,2.77-26.34,11.67-.54.87-.97,1.82-1.44,2.73-4.59,8.3-4.77,19.24-.38,28.36-2.23-1.04-4.4-2.42-6.45-4.16Z"/>
            <path d="m627.21,464.97c6.24-1.11,12.13-.02,17.48,3.39,4.65,2.97,7.96,7.02,10.02,11.95-4.23-1.73-8.74-2.15-13.45-1.3-6.42,1.15-11.79,4.27-16.05,9.18-7.25,8.35-9.74,18-7.34,28.78.37,1.64.86,3.2,1.46,4.7-1.36-.58-2.72-1.27-4.06-2.12-6.14-3.88-9.88-9.6-11.45-16.62-2.4-10.78.09-20.44,7.34-28.78,4.26-4.91,9.63-8.03,16.05-9.18Z"/>
            <path d="m554.63,579.49c7.9-7.48,17.26-10.77,28.08-8.69,8.74,1.68,15.24,7.49,17.9,15.11-1.23-.44-2.52-.81-3.86-1.06-10.83-2.08-20.18,1.21-28.08,8.69-4.93,4.67-8.11,10.41-8.99,17.2-.54,4.17-.21,8.03,1.01,11.54-2.31-.85-4.48-2.05-6.46-3.64-7.04-5.65-9.75-13.11-8.6-21.94.88-6.79,4.06-12.54,8.99-17.21Z"/>
            <path d="m624.24,534.72c3.19-1.28,6.51-1.97,9.95-1.97,3.56,0,6.99.69,10.16,2.32,5.59,2.87,9.2,7.22,11.03,12.8-2.29-.74-4.68-1.08-7.14-1.08-3.44,0-6.76.69-9.95,1.97-11.33,4.53-19.56,15.93-20.24,28.11-.19,3.44.23,6.8,1.34,10.06-6.45-2.06-11.54-6.95-13.95-13.76-1.19-3.35-1.63-6.81-1.43-10.35.68-12.17,8.91-23.58,20.24-28.11Z"/>
            <path d="m672.63,431.38c7.38-3.64,14.53-3.17,21.32,1.56,4.1,2.86,6.93,6.72,8.78,11.26-5.19-1.91-10.56-1.48-16.06,1.23-4.67,2.3-8.17,5.94-10.63,10.46-4.85,8.89-5.64,18.2-2.27,27.76.17.48.36.95.55,1.41-1.57-.59-3.13-1.39-4.68-2.4-4.84-3.17-8.02-7.67-9.91-13.05-3.37-9.57-2.58-18.88,2.27-27.76,2.47-4.52,5.96-8.16,10.63-10.46Z"/>
            <path d="m542.82,567.3c-4.45-4.81-10.09-7.75-16.75-8.68-12.87-1.78-23.48,2.55-30.97,13.19-3.49,4.96-5.17,10.51-5.17,15.98-8.85-9.39-10.13-23.5-2.3-34.63,7.49-10.64,18.1-14.97,30.97-13.19,7.78,1.08,14.17,4.9,18.89,11.25,3.56,4.78,5.34,10.4,5.33,16.09Z"/>
            <path d="m423.57,596.87c1.71-8.67,6.93-14.85,14.83-18.61,9.56-4.55,19.14-4.05,28.58.52,2.81,1.41,5.31,3.21,7.48,5.44,5.79,5.96,8.77,12.92,7.97,20.94-.94-1.31-2.01-2.57-3.2-3.8-2.17-2.23-4.67-4.04-7.48-5.44-9.44-4.56-19.02-5.07-28.57-.52-7.9,3.76-13.13,9.94-14.83,18.61-.18.9-.3,1.79-.38,2.67-4.18-5.7-5.86-12.31-4.38-19.81Z"/>
            <path d="m491.53,617.79c6.27-7.79,14.59-11.54,24.48-11.89,6.57-.23,12.61,1.49,18.07,5.27,5.26,3.64,8.81,9.2,9.73,15.37-4.87-2.81-10.18-4.09-15.88-3.89-9.88.35-18.21,4.09-24.48,11.89-2.55,3.17-4.28,6.79-5.03,10.82-.46,2.48-.5,4.92-.16,7.27-.6-.34-1.19-.67-1.76-1.05-7.71-5.14-11.71-13.83-9.99-22.96.76-4.04,2.48-7.66,5.03-10.82Z"/>
            <path d="m369.6,637c-4.07-10.68.19-21.77,10.35-27.01,4.01-2.07,8.31-3.02,12.81-2.99,8.26.05,15.55,2.82,21.8,8.16,4.75,4.05,8.02,9.09,9.33,15.27.93,4.41.5,8.74-1.1,12.6-1.67-4.51-4.48-8.35-8.23-11.55-6.25-5.34-13.54-8.11-21.8-8.16-4.5-.03-8.8.92-12.81,2.99-4.88,2.51-8.38,6.38-10.27,10.89-.03-.07-.06-.13-.09-.2Z"/>
            <path d="m310.83,595.42c-.53.65-1,1.32-1.44,2-.19-1.6-.25-3.21-.13-4.84.34-4.44,1.8-8.44,4.65-11.88,4.05-4.9,9.4-7.21,15.65-7.58,5.38-.32,10.42.97,13.7,2.72,7.85,4.11,12.88,9.15,16.01,15.42,2.35,4.7,3.51,9.66,3.01,14.94-.33,3.51-1.44,6.7-3.14,9.42-.38-3.33-1.4-6.54-2.95-9.64-3.13-6.26-8.15-11.31-16.01-15.42-3.28-1.75-8.32-3.04-13.7-2.72-6.24.37-11.6,2.68-15.65,7.58Z"/>
            <path d="m653.62,384.18c.6-5.34,2.57-10.21,6.22-14.22,5.63-6.19,12.55-8.35,20.71-6.22,3.34.88,6.29,2.49,8.87,4.67-3.83.94-7.28,3.1-10.35,6.48-3.65,4.01-5.62,8.88-6.22,14.22-1.33,11.87,2.33,21.9,11.42,29.77-1.39.32-2.85.52-4.41.56-3.68.1-7.14-.83-10.44-2.49-1.45-.98-3.02-1.82-4.33-2.95-9.13-7.88-12.8-17.93-11.47-29.82Z"/>
            <path d="m444.71,640.13c10.56-3.85,20.69-2.79,30.22,3.13,3.64,2.26,6.53,5.34,8.57,9.16,3.3,6.18,3.19,13.01-.11,18.82-2.03-3.73-4.88-6.74-8.46-8.97-9.54-5.92-19.66-6.98-30.22-3.13-4.23,1.54-7.85,4.06-10.77,7.54-.85,1.02-1.58,2.09-2.21,3.2-4.07-7.35-3.2-15.76,2.21-22.21,2.92-3.49,6.53-6,10.77-7.54Z"/>
            <path d="m663.66,350.83c-8.65-4.32-15.46-13.6-17.34-23.5-.86-4.53-.77-9.02.59-13.45,2.83-9.2,11.01-14.35,20.53-12.94,2.05.3,4.03.83,5.91,1.73,1.56.75,3.02,1.58,4.39,2.47-5.98,1.54-10.71,6.02-12.72,12.56-1.36,4.43-1.45,8.91-.59,13.45,1.69,8.86,7.33,17.22,14.69,21.97-1.6.39-3.28.59-5.04.54-3.78-.09-7.31-1.12-10.41-2.84Z"/>
            <path d="m331.61,634.48c2.98-.98,6.03-1.25,9.15-1.07,3.85.22,7.52,1.2,11.03,2.74,6.78,2.98,12.27,7.5,16.12,13.88,1.89,3.12,3.1,6.5,3.39,10.17.24,3.12-.3,5.99-1.51,8.48-.51-1.29-1.14-2.54-1.87-3.75-3.85-6.38-9.33-10.9-16.12-13.88-3.51-1.54-7.18-2.52-11.03-2.74-3.12-.18-6.17.1-9.15,1.07-4.52,1.48-7.84,4.32-9.68,7.97-.52-1.28-.95-2.6-1.23-3.98-1.81-8.7,2.49-16.13,10.91-18.89Z"/>
            <path d="m280.61,599.33c2.16-.23,4.31-.09,6.45.34,4.84.98,9.13,3.11,13,6.14,5.99,4.7,10.33,10.57,12.51,17.92,1.16,3.92,1.46,7.9.31,11.88-.93,3.25-2.6,5.77-5,7.55-.05-2.07-.41-4.14-1.02-6.19-2.18-7.35-6.52-13.22-12.51-17.92-3.87-3.03-8.16-5.16-13-6.14-2.13-.43-4.28-.56-6.45-.34-2.93.31-5.47,1.28-7.53,2.81-.04-1.02,0-2.05.12-3.09.88-7.31,5.82-12.19,13.12-12.95Z"/>
            <path d="m653.97,289.07c-6.99-3.83-12.28-9.3-15.74-16.49-1.49-3.09-2.43-6.35-2.7-9.79-.17-2.28,0-4.53.63-6.74,1.53-5.33,5-8.66,10.36-9.98,3.39-.84,6.77-.55,10.09.39.92.26,1.82.56,2.69.9-.29.06-.57.11-.86.18-5.37,1.32-8.84,4.65-10.36,9.98-.63,2.21-.8,4.45-.63,6.74.26,3.44,1.21,6.69,2.7,9.79,3.47,7.19,8.75,12.66,15.74,16.49,1.17.63,2.36,1.18,3.58,1.65-1.31.22-2.65.29-4.01.22-4.1-.19-7.9-1.39-11.49-3.34Z"/>
            <path d="m234.13,563.98c2.83.11,5.47.92,8.04,2.22,11.07,6.95,17.53,16.78,18.53,29.98.2,2.69-.25,5.33-1.23,7.88-1.19,3.07-3.16,5.29-5.7,6.49.03-.68.02-1.36-.03-2.04-1-13.2-7.47-23.03-18.53-29.98-2.57-1.3-5.21-2.11-8.04-2.22-1.99-.08-3.81.27-5.4.99.08-1.76.38-3.51.94-5.24,1.69-5.27,5.91-8.29,11.42-8.08Z"/>
            <path d="m652.64,238.81c-3.93-.52-7.6-1.81-11.07-3.75-3.24-1.59-6.15-3.71-8.81-6.17-3.59-3.32-6.56-7.11-8.46-11.66-1-2.4-1.61-4.89-1.45-7.52.27-4.45,2.75-7.57,7.04-8.68,1.28-.33,2.65-.56,3.96-.49,1.94.11,3.92.3,5.8.77-3.73,1.3-5.87,4.28-6.12,8.4-.16,2.63.45,5.12,1.45,7.52,1.9,4.55,4.86,8.34,8.46,11.66,2.66,2.46,5.57,4.58,8.81,6.17,2.6,1.46,5.31,2.55,8.16,3.22-.04.01-.08.03-.12.04-2.51.78-5.06.83-7.64.49Z"/>
            <path d="m187.86,533.97c1.76-3.9,5.02-5.27,9.17-4.13,3.33.92,5.78,3.11,8.07,5.5,3.03,3.15,5.28,6.84,7.04,10.83,2.44,5.53,3.9,11.29,3.75,17.38-.08,3.23-.64,6.35-2.39,9.16-1.08,1.74-2.58,2.88-4.29,3.35,0-.04,0-.08,0-.11.16-6.09-1.31-11.85-3.75-17.38-1.76-3.99-4.01-7.68-7.04-10.83-2.29-2.39-4.74-4.58-8.07-5.5-1.48-.41-2.84-.49-4.07-.26,0-1.19.09-2.39.31-3.58.28-1.51.63-3.05,1.26-4.43Z"/>
            <path d="m616.61,172.74c.21,1.39.71,2.79,1.33,4.07,1.18,2.43,2.92,4.47,4.87,6.32,6.55,6.22,14.17,10.53,22.97,12.6.15.03.3.06.44.09-1.04.3-2.15.48-3.21.49-1.83.02-3.72-.16-5.5-.58-8.81-2.08-16.42-6.39-22.97-12.6-1.95-1.85-3.7-3.89-4.87-6.32-.62-1.28-1.12-2.67-1.33-4.07-.33-2.27.87-4.04,3.08-4.71,1.06-.32,2.23-.49,3.34-.45,1.53.05,3.07.28,4.57.58,0,0,0,0,0,0-1.97.75-3.04,2.43-2.73,4.57Z"/>
            <path d="m181.59,532.99c-.1,2.05-.49,4.09-1.07,5.36-.51.98-.68,1.36-.9,1.7-1.19,1.81-2.89,2.29-4.59,1.29.29-9.78-1.95-19-6.75-27.58-.94-1.69-2.19-3.24-3.5-4.67-.44-.48-.99-.9-1.57-1.26.02-1.7.14-3.4.24-5.09.09-1.57.68-3.01,1.65-4.26.84-1.09,2.04-1.53,3.27-.95,1.09.51,2.22,1.17,3.02,2.04,1.31,1.43,2.56,2.98,3.5,4.67,4.99,8.93,7.22,18.53,6.71,28.75Z"/>
            <path d="m278.1,488.47c-2.95-2.32-6.32-3.88-10.04-4.57-7.49-1.38-14.81,1.47-19.56,7.4.59-3.02,1.7-5.89,3.27-8.61,4.52-7.79,12.88-11.77,21.46-10.18,3.72.69,7.09,2.25,10.04,4.57,8.14,6.4,12.04,14.98,12.46,25.19.22,5.46-1,10.62-3.69,15.43-.62,1.11-1.31,2.14-2.07,3.09.48-2.32.69-4.69.59-7.14-.42-10.22-4.32-18.79-12.46-25.19Z"/>
            <path d="m240.51,484.01c-.64,1.31-1.41,2.56-2.32,3.72.54-2.04.87-4.13,1.03-6.25.48-6.29-.55-12.34-3.24-18.07-1.87-3.98-4.43-7.41-8.02-10.04-6.97-5.09-15.36-4.14-21.06,2.42-.23.27-.44.54-.66.81.98-3.89,2.67-7.47,5.34-10.55,5.69-6.55,14.09-7.51,21.06-2.42,3.6,2.63,6.16,6.06,8.02,10.04,2.69,5.73,3.72,11.78,3.24,18.07-.33,4.25-1.29,8.35-3.39,12.27Z"/>
            <path d="m192.13,413.38c1.91.9,3.45,2.21,4.75,3.86,1.8,2.3,3.04,4.89,3.93,7.65,1.63,5.07,2.12,10.27,1.68,15.56-.41,4.86-1.51,9.55-3.82,13.89-.33.64-.62,1.31-1.01,1.91-1.24,1.89-2.66,3.6-4.51,4.9.01-.02.02-.04.03-.07,2.31-4.34,3.42-9.03,3.82-13.89.44-5.29-.05-10.49-1.68-15.56-.89-2.76-2.12-5.35-3.93-7.65-1.29-1.65-2.84-2.96-4.75-3.86-2.41-1.13-4.79-1.05-7.14.12-.44.22-.85.47-1.25.74.62-1.2,1.32-2.36,2.14-3.46,1.25-1.68,2.73-3.08,4.61-4.02,2.35-1.17,4.73-1.25,7.14-.12Z"/>
            <path d="m202.17,363.31c1.01,2.73,1.49,5.57,1.6,8.47.28,7.57-1.33,14.72-4.71,21.33-1.41,2.58-2.83,4.97-4.8,6.98-.72.74-1.48,1.43-2.29,2.05.14-.24.27-.49.41-.74,3.38-6.6,4.99-13.76,4.71-21.33-.11-2.9-.59-5.74-1.6-8.47-.69-1.85-1.62-3.55-3.02-4.98-2.5-2.55-5.51-3.14-8.75-1.63-.79.37-1.51.82-2.19,1.33.86-1.63,1.85-3.2,3.04-4.66,1.64-2.02,3.44-3.84,5.83-4.95,3.23-1.51,6.25-.92,8.75,1.63,1.4,1.43,2.33,3.13,3.02,4.98Z"/>
            <path d="m169.37,429.97c-.16.28-.32.56-.49.84.98-3.05,1.66-6.17,2.06-9.36.68-5.46.75-10.9-.38-16.3-.31-1.5-.82-2.98-1.34-4.43-.27-.76-.71-1.49-1.19-2.15-1.83-2.55-4.03-2.69-6.15-.41-.56.6-1.03,1.24-1.45,1.92.4-1.29.85-2.58,1.37-3.84.68-1.63,1.52-3.16,2.73-4.45,2.13-2.28,4.32-2.14,6.15.41.48.66.91,1.39,1.19,2.15.52,1.45,1.03,2.92,1.34,4.43,1.13,5.4,1.06,10.84.38,16.3-.64,5.15-1.99,10.09-4.22,14.88Z"/>
            <path d="m481.88,485.53c7.71-15.31,26.6-21.61,41.73-13.9,5.53,2.82,9.77,7.02,12.59,11.93-1.47-1.12-3.06-2.14-4.78-3.02-15.13-7.71-34.02-1.41-41.73,13.9-4.81,9.56-4.21,20.38.69,28.95-11.38-8.66-15.23-24.5-8.51-37.86Z"/>
            <path d="m474.93,525.04c-10.68-12.47-28.58-11.84-41.52-1.96-3.34,2.55-6.18,5.88-8.14,9.58-3.56,6.83-5.05,11.56-3.31,18.27-5.29-8.47-6.28-19.42-1.16-29.25,1.96-3.7,4.8-7.03,8.14-9.58,12.94-9.88,31.72-7.86,42.4,4.61,3.26,3.8,5.37,7.99,6.47,12.28-.84-1.35-1.79-2.68-2.88-3.95Z"/>
            <path d="m547.34,481.42c-9.72-11.81-8.58-28.05-.84-38.43,12.51-16.77,37.7-16.41,48.92,2.23.02.03.04.07.06.1-12.41-7.19-28.93-4.25-38.31,8.33-6.91,9.27-8.55,23.19-1.92,34.48-2.92-1.64-5.62-3.93-7.91-6.72Z"/>
            <path d="m327.22,518.36c-10.31-2.34-21.02,1.7-26.49,11.09.1-.91.22-1.82.39-2.75,2.89-15.34,16.58-22.58,29.61-19.61,5.48,1.25,10.17,3.89,14.2,7.74,9.67,9.24,12.44,23.25,7.99,33.73-.47,1.12-1,2.18-1.56,3.18.74-8.88-2.61-18.63-9.95-25.64-4.03-3.85-8.72-6.49-14.2-7.74Z"/>
            <path d="m257.38,550.02c2.84-7.76,9.66-12.38,17.92-12.04,3.67.15,7.1,1.15,10.32,2.91,10.2,5.35,17.36,16.85,17.66,28.35.07,2.8-.22,5.57-1.07,8.24-1,3.16-2.48,5.7-4.27,7.7.3-1.73.4-3.49.35-5.27-.31-11.5-7.46-22.99-17.66-28.35-3.22-1.76-6.65-2.76-10.32-2.91-5.63-.23-10.58,1.84-14.07,5.64.25-1.43.62-2.86,1.14-4.27Z"/>
            <path d="m213.59,512.16c3.08-6.55,9.26-9.8,15.91-8.29,2.64.6,5.04,1.73,7.26,3.32,10.45,7.48,15.47,22.65,13.06,34.05-.56,2.65-1.43,5.16-2.85,7.47-.6.98-1.28,1.85-2.01,2.63,2.31-11.38-2.71-26.41-13.09-33.85-2.22-1.59-4.62-2.72-7.26-3.32-4.92-1.12-9.59.38-12.93,3.89.39-2.02,1.02-3.99,1.91-5.9Z"/>
            <path d="m178.42,484.4s-.05.07-.08.1c.12-.65.25-1.3.41-1.95.67-2.7,1.56-5.32,3.42-7.51,3.13-3.71,7-4.52,12.14-1.85,2.19,1.11,4.46,3.5,6.2,6.33,5.77,9.36,7.56,19.46,5.22,30.21-.59,2.73-1.62,5.31-3.4,7.55,1.77-10.08-.12-19.58-5.57-28.41-1.74-2.83-4.01-5.22-6.2-6.33-5.14-2.68-9-1.87-12.14,1.85Z"/>
            <path d="m172.03,485.48c-.42.52-.82,1.07-1.24,1.6.09-.45.18-.9.25-1.36,1.31-8.17.83-16.25-1.68-24.15-.71-2.24-1.8-4.38-2.89-6.47-.71-1.37-1.76-2.54-3.14-3.34-1.49-.87-2.99-.75-4.27.39-.17.15-.31.31-.47.47.35-1.55.81-3.08,1.22-4.61.38-1.42,1.21-2.62,2.31-3.6,1.28-1.15,2.78-1.26,4.27-.39,1.38.8,2.43,1.98,3.14,3.34,1.09,2.1,2.18,4.23,2.89,6.47,2.51,7.9,2.99,15.98,1.68,24.15-.41,2.54-1.06,5.04-2.08,7.49Z"/>
            <path d="m407.25,564.42c-1.72-1.45-3.68-2.63-5.53-3.93-6.01-3.02-12.3-4.31-18.93-3.28-9.94,1.53-17.08,6.86-20.95,16.23-.25.62-.47,1.23-.67,1.86-.07-.23-.14-.45-.2-.69-1.49-5.65-1.37-11.27.87-16.68,3.87-9.37,11.02-14.69,20.95-16.23,6.63-1.02,12.92.27,18.93,3.28,1.85,1.3,3.81,2.47,5.53,3.93,6.69,5.66,10.58,12.83,11.08,21.65.18,3.2-.17,6.23-1.04,9.08-1.63-5.94-5.06-11-10.04-15.21Z"/>
            <path d="m459.62,447.67c-4.63-2.4-9.55-3.62-14.63-3.62-11.73,0-22.8,6.69-28.21,17.05-1.31,2.5-2.26,5.15-2.85,7.92-.95-6.34.08-12.87,3.01-18.47,5.11-9.78,15.57-16.11,26.65-16.11,4.79,0,9.44,1.15,13.82,3.42,9.21,4.78,15.23,13.9,16.17,24.04-2.99-6.08-7.82-11.04-13.97-14.23Z"/>
            <path d="m531.66,412.35c-1.69-1.4-3.52-2.63-5.48-3.67-4.53-2.42-9.65-3.69-14.81-3.69-11.87,0-22.63,6.46-28.09,16.87-3.51,6.69-4.55,14.36-3.01,21.62-5.91-9.06-6.57-20.87-1.42-30.69,5.16-9.82,15.32-15.93,26.53-15.93,4.87,0,9.7,1.21,13.98,3.49,5.2,2.77,9.45,6.95,12.29,12Z"/>
            <path d="m401.6,487.03c-4.25-3.51-9.06-5.72-14.3-6.55-1.49-.24-3.01-.36-4.51-.36-13.1,0-24.1,8.92-27.04,21.78-.33.9-.63,1.81-.89,2.75-.52-3.38-.44-6.78.24-10.15,2.65-13.3,13.85-22.6,27.22-22.6,1.5,0,3.01.12,4.51.36,5.24.84,10.05,3.04,14.3,6.55,6.89,5.69,10.93,14.23,11.08,23.03-.83-1.88-1.83-3.65-2.99-5.33-1.86-3.6-4.43-6.85-7.62-9.48Z"/>
            <path d="m335.61,450.6c-1.51-1.22-3.21-2.22-4.83-3.32-11.15-5.63-24.28-2.8-32.05,7-1.32,1.66-2.43,3.44-3.35,5.29.95-4.58,2.91-8.98,5.93-12.79,7.77-9.81,20.89-12.64,32.05-7,1.61,1.1,3.31,2.09,4.83,3.32,10.89,8.81,14.52,25.19,8,38.33,2.35-11.4-1.7-23.64-10.59-30.83Z"/>
            <path d="m591,241.15c4,7.11,10.09,12.36,18.09,15.61.57.23,1.14.44,1.71.64-.27,0-.55.01-.83.01h0c-.48,0-.96-.01-1.44-.04-3.29-.16-6.62-.92-9.91-2.25-7.62-3.09-13.42-8.08-17.22-14.84-1.62-2.88-2.56-5.91-2.78-9.01-.51-7.11,3.36-12.99,10.09-15.35,2.42-.85,5.02-1.23,7.9-1.17.42,0,.84.03,1.26.06-6.65,2.92-10.4,9.15-9.87,16.59.24,3.35,1.25,6.63,3,9.74Z"/>
            <path d="m600.5,206.66h0c-1.09,0-2.21-.07-3.35-.21-4.87-.59-9.38-2.04-13.41-4.31-.31-.16-.61-.31-.9-.46-.63-.32-1.23-.62-1.8-.97-3.8-2.36-6.8-5.03-9.14-8.18-1.36-1.82-2.31-3.61-2.9-5.45-1.83-5.69.4-10.25,5.99-12.2,1.38-.48,2.59-.76,3.68-.85.11,0,.21-.02.32-.02-2.93,2.84-3.81,6.99-2.33,11.57.65,2.03,1.69,3.98,3.17,5.96,2.48,3.33,5.63,6.15,9.63,8.62.63.39,1.29.72,1.93,1.04.29.14.57.29.85.43,4.06,2.29,8.62,3.78,13.52,4.44-.18.04-.37.08-.56.12-1.51.3-3.08.45-4.68.45Z"/>
            <path d="m202.45,336.62c.97-2.78,1.66-5.61,2.07-8.5.44-3.09.47-5.84.07-8.4-.33-2.14-.92-3.78-1.87-5.17-1.74-2.54-4.3-3.52-7.29-2.75,1.06-1.29,2.2-2.45,3.42-3.47,1.44-1.21,2.73-1.94,4.04-2.29.47-.13.93-.19,1.34-.19,1.27,0,2.3.61,3.15,1.86.72,1.05,1.17,2.35,1.44,4.08.35,2.3.33,4.8-.08,7.62-.86,5.95-2.92,11.59-6.3,17.2Z"/>
            <path d="m589.98,167.57c-.82,0-1.63-.03-2.38-.1-7.29-.63-14.41-3.05-21.16-7.18-2.56-1.57-4.57-3.2-6.14-4.99-.94-1.07-1.87-2.26-2.33-3.69-.55-1.7-.09-2.88,1.4-3.59,1.03-.5,2.32-.86,3.72-1.05.86-.11,1.76-.17,2.72-.15-.6,1.23-.68,2.71-.17,4.29.61,1.9,1.78,3.4,2.85,4.63,1.75,1.99,3.95,3.79,6.75,5.5,4.82,2.95,9.83,5.07,14.96,6.34-.07,0-.15,0-.22,0h0Z"/>
            <path d="m537.84,146.65c-8.25.31-16.38-1.25-24.27-4.59-1.89-.8-3.73-1.97-5.48-3.48-.72-.62-1.39-1.47-1.88-2.39-.5-.92-.28-1.79.6-2.45.49-.36,1.1-.69,1.83-.99.07.23.17.46.29.69.6,1.11,1.39,2.11,2.28,2.88,1.88,1.63,3.88,2.9,5.94,3.77,8.13,3.45,16.52,5.04,25.02,4.73,1.63-.06,3.62-.2,5.67-.66-.72.49-1.54.85-2.13,1.09-2.67,1.08-5.47,1.31-7.87,1.4Z"/>
            <path d="m564.53,360.99c2.6,0,5.24.36,7.83,1.07,5.52,1.51,10.49,4.64,14.34,8.98-1.7-.83-3.47-1.49-5.3-1.99-2.75-.75-5.54-1.13-8.3-1.13-15.89,0-28.78,12.62-29.35,28.73-.19,5.54.78,10.77,2.85,15.36-6.52-5.67-10-14.2-9.66-23.98.53-15.16,12.65-27.04,27.59-27.04Z"/>
            <path d="m622.85,329.11c4.98.83,9.42,2.89,13.25,6.13-.75-.19-1.52-.35-2.29-.47-1.71-.29-3.4-.43-5.01-.43-7.37,0-13.62,2.94-18.59,8.75-4.36,5.1-6.49,11.16-6.32,18,.18,7.41,2.32,13.87,6.36,19.28-9.84-6.3-14.99-15.29-15.27-26.72-.16-6.39,1.82-12.05,5.9-16.81,5.64-6.6,13.08-9.21,21.97-7.73Z"/>
            <path d="m617.45,317.7c-1.06-.03-2.16-.13-3.27-.29-11.99-1.8-22.57-11.24-25.73-22.97-.89-3.3-1.12-6.59-.7-9.77,1.14-8.54,7.02-14.98,15.34-16.79,1.73-.38,3.64-.56,5.83-.56h.42c1.28.02,2.54.14,3.83.39-8.2,2.42-13.91,9.13-15.08,17.86-.46,3.42-.21,6.93.74,10.46,2.53,9.39,9.63,17.54,18.61,21.68Z"/>
            <path d="m235.37,421.73c2.86-6.87,3.53-14.14,1.98-21.67-.61-2.95-1.67-5.7-3.16-8.18-1.22-2.02-2.61-3.67-4.26-5.05-4.47-3.71-9.52-4.52-14.91-2.37-1.76.7-3.38,1.66-4.9,2.92,2.72-3.94,5.77-6.55,9.33-7.97,1.86-.74,3.69-1.12,5.44-1.12,3.02,0,5.91,1.13,8.58,3.35,1.58,1.31,2.91,2.89,4.07,4.82,1.44,2.39,2.47,5.05,3.05,7.91,1.88,9.12.43,17.83-4.31,25.91-.29.5-.6.98-.92,1.45Z"/>
            <path d="m282.37,454.25c4.26-9.09,4.32-18.51.18-28.06-2.51-5.8-6.52-9.8-13.39-13.36-2.02-1.01-4.41-1.55-6.92-1.55-3.77,0-7.72,1.16-11.43,3.36-.8.47-1.58,1-2.32,1.56,1.93-2.52,4.25-4.59,6.95-6.19,3.58-2.12,7.38-3.24,10.99-3.24,2.38,0,4.63.5,6.52,1.45,6.67,3.46,10.56,7.32,12.99,12.92,4.55,10.49,3.89,20.82-1.95,30.71-.49.83-1.03,1.63-1.6,2.39Z"/>
          </g>
        </g>
        <g>
          <path class="cls-2" d="m535.08,199.14h0c43.39,0,87.63,10.74,115.44,28.02,4.92,3.05,11.11,9.59,12.72,23.4.92,7.85.18,16.9-2.07,25.46-1.91,7.26-4.8,13.68-8.35,18.55-3.69,5.06-7.66,7.98-11.35,9.6-.31.52-3.82.9-4.14,1.4v11.17c0,.08,5.8,1.48,5.8,1.56,2.03,1.21,3.79,2.9,5.16,5.03,3.95,2.04,7.07,5.79,8.49,10.54.43,1.45.69,2.91.77,4.35.96,1.63,1.62,3.44,1.94,5.37.59,3.66-.09,7.45-1.92,10.86.04,1.63-.17,3.28-.64,4.88-1.39,4.72-4.76,8.43-8.98,11.07l3.59,5.17-5.74,7.31c-1.08,1.37-2.1,2.78-3.02,4.18l-9.25,14.01-.62,2.7-12.15-2.65-5.74-1.25-12.34-2.68.71-3.19c-8.9,7.82-18.12,15.87-28.96,22.37-6.74,4.04-13.51,7.1-20.4,9.19l-16.95,12.08c-16.17,11.52-18.23,29.09-20.61,49.44-1.47,12.53-2.98,25.49-8.04,37.7l-8.26,19.95c17.71-6.15,35.73-10.96,53.65-14.31,21.63-4.05,43.8-6.1,65.9-6.1,1.05,0,2.1,0,3.14.01,14.54.13,29.1,1.34,43.27,3.62,15.51,2.49,29.81,6.15,42.51,10.87,14.45,5.37,26.62,12.07,36.16,19.9,11.26,9.24,18.91,20.06,22.73,32.17,2.86,9.05,2.28,18.26-1.72,27.39-3.01,6.87-7.99,13.63-14.82,20.07-12.72,12.01-28.28,19.82-34.38,22.62-20.49,9.4-43.28,16.46-67.75,20.98-20.92,3.87-43.62,6.38-67.56,6.38-2.06,0-4.13-.02-6.21-.06-42.2-.77-75.25-3.84-99.84-8.63-35.01-6.82-57.82-8.45-127.48-39.81-6.51-2.93-12.12-6.42-12.12-6.42-7.7-4.27-15.32-8.9-22.75-13.92-46.63-31.45-80.82-73.16-101.62-123.98-.96-2.35-1.87-4.73-2.72-7.13l-3.22,15.94-13.32-55c-3.43-14.15-4.38-28.99-2.84-44.1,1.44-14.05,4.98-27.97,10.54-41.37,2.97-7.15,6.43-13.99,10.37-20.46l-11.01,3.49s12.61-22.47,19.53-30.55c5.13-6,11.13-11.35,18.19-16.1l15.68-14.28c11.21-10.21,25.34-16.86,43.2-20.31,14.91-2.88,30.82-3.29,46.2-3.69,14.7-.38,29.89-.77,43.52-3.36,23.48-4.48,52.29-17.1,71.64-26.97l-12.57-1.92,17.98-9.08-19.55.35s28.45-13.09,44.27-16.9c14.62-3.52,30.78-4.94,47.86-4.94m84.62,109.14c4.53-1.13,8.45-6.22,11.16-10.85,0,0-7.02.82-9.8,2.24,0,0-2.84,5.45-4.12,7.44l2.76,1.17m8.12,20.71c.3,0,.6-.04.88-.11.95-.23,1.75-.82,2.37-1.46-.04-2.8-.17-5.48-.45-7.99l-5.84.63c.27,2.47.4,5.23.42,8.15.92.51,1.79.77,2.61.77m11.14,6.07c-.26-4.61-1.72-6.29-3.62-6.29h0c-.75,0-1.57.27-2.4.72-.91.9-2.09,1.74-3.56,2.1-.52.13-1.05.19-1.59.19-1.2,0-2.43-.33-3.68-.98-4.39.03-8.38,5.82-10.19,10.88,1.37-.54,2.69-1.09,3.9-1.37.14-.03.29-.05.44-.05.94,0,1.95.62,2.09,1.6.26,1.96-.32,3.58-.82,5.29.24-.04.48-.08.71-.13,1.48-.27,2.96-.59,4.44-.85,1.25-.22,2.73-.54,4.15-.54,1.27,0,2.49.26,3.46,1.08,2.36,2,0,5.1-1.66,6.57-1.22,1.07-2.52,2.04-3.77,3.08-.36.3-.8.63-1.22.99,1.58.31,3.23.42,4.72,1.15,1.28.63,1.16,2.42.31,3.3-.21.22-.44.44-.66.65.48.05.97.07,1.46.07,8.43,0,17.91-6.68,11.36-10.91,4.77-1.6,6.35-8.46.71-8.46-.12,0-.24,0-.36,0,3.42-2.23,1.65-8.97-1.93-8.98h0c-.71,0-1.48.26-2.3.87m-6.66,45.08c1.14-1.73,2.35-3.4,3.63-5.03-1.72-2.48-3.58-5.45-5.1-8.52-.66-.57-2.1-1.63-3.72-1.82-2.01,1.43-4.12,2.73-5.94,4.39-1.54,9.31-3.01,16.36-3.37,18.04-.05.26-.08.38-.08.38l5.74,1.25s1.57-7.23,3.29-17.4c.82,1.49,1.67,2.92,2.53,4.26,1.05,1.63,2.08,3.13,3.04,4.44m-131.28,125.82c5.73-27.43,1.49-59.1,28.78-78.55-7.31-.24-14.57-1.49-21.46-3.75-14.27,8.4-27.71,21.03-32.22,37.24,15.21,14.54,25.37,30.44,24.89,45.06m74.1,169.75c49.39,0,95.8-7.59,136.28-26.16,15.51-7.12,52.4-28.8,44.17-54.87-12.93-40.94-79.58-57.31-132.8-57.77-.7,0-1.4-.03-2.1-.03-.31,0-.62,0-.93.02-159.32,7.71-136.47,60.18-232.63,69.85-8.91.9-17.86,1.58-27.54,1.58-14.43,0-30.46-1.52-50.31-6.12,56.9,38.05,126.28,58.34,168.03,65.04,33.31,5.35,66.19,8.47,97.84,8.47m-40.04-489.6c-19.46,0-36.11,1.73-50.92,5.3-16.86,4.06-45.45,17.18-46.66,17.73l-56.47,25.98,24.72-.44-3.48,1.76,8.52,1.3c-10.34,3.76-19.86,6.54-27.78,8.05-12.58,2.4-27.24,2.77-41.42,3.14-15.92.41-32.37.83-48.34,3.92-20.28,3.92-36.47,11.6-49.5,23.47l-15,13.66c-7.66,5.25-14.21,11.11-20,17.89-7.53,8.81-19.63,30.23-20.99,32.64l-16.16,28.78,13.75-4.36c-4.69,12.69-7.74,25.77-9.09,38.96-1.7,16.58-.64,32.9,3.14,48.49l13.32,55,13.81,57.05,6.92-34.21c21.92,39.95,52.83,73.52,92.21,100.08,7.38,4.98,15.27,9.81,23.47,14.37,1.35.82,6.94,4.16,13.35,7.04,62.58,28.18,88.29,32.93,118.07,38.42,3.96.73,8.05,1.49,12.27,2.31,26.32,5.12,60.66,8.11,102.09,8.87,2.16.04,4.31.06,6.45.06,22.69,0,46.22-2.22,69.92-6.6,25.53-4.72,49.35-12.1,70.82-21.95,6.69-3.07,23.77-11.64,37.89-24.99,8.1-7.65,14.09-15.84,17.81-24.32,5.3-12.11,6.04-24.4,2.21-36.55-4.6-14.56-13.65-27.45-26.9-38.32-10.66-8.75-24.08-16.16-39.89-22.04-13.5-5.02-28.64-8.9-44.99-11.52-14.82-2.38-30.04-3.66-45.23-3.79-1.07,0-2.17-.01-3.25-.01-22.9,0-45.87,2.13-68.3,6.32-9.6,1.8-19.24,4-28.85,6.59,4.11-12.15,5.56-24.51,6.85-35.6,2.4-20.55,4.29-32.55,15.22-40.34l15.29-10.89c7.14-2.36,14.27-5.66,21.21-9.82,8.52-5.11,16.01-11,22.79-16.75l8.31,1.8,5.74,1.25,12.15,2.65,12.61,2.75,2.88-12.58.09-.39,7.95-12.04c.73-1.1,1.53-2.22,2.39-3.31l5.74-7.31,5.96-7.58-2.75-3.95c1.98-2.78,3.48-5.82,4.44-9.07.52-1.77.87-3.59,1.05-5.42,2.11-5.16,2.76-10.66,1.88-16.1-.4-2.47-1.11-4.84-2.12-7.08-.22-1.43-.55-2.86-.96-4.26-2.04-6.85-6.34-12.75-12.02-16.62-.71-.87-1.46-1.68-2.26-2.45,3.05-2.43,5.84-5.38,8.36-8.83,4.49-6.17,8.1-14.1,10.41-22.91,2.66-10.1,3.51-20.86,2.42-30.29-2.21-18.97-11.44-28.4-18.79-32.97-29.76-18.49-76.63-29.98-122.32-29.98h0Zm-40.58,275.19c-1.02-1.18-2.07-2.36-3.17-3.54,1.89-3.61,4.34-6.88,7.02-9.78-1.64,4.37-2.88,8.84-3.86,13.32h0Zm80.62,201.38c-29.24,0-61.46-2.79-95.78-8.3-29.65-4.76-69.45-15.62-108.7-33.29,6.54-.31,12.5-.85,17.75-1.37,43.86-4.41,65.68-17.76,86.78-30.68,28-17.13,56.95-34.85,145.18-39.12.09,0,.19,0,.28,0h.01c.3,0,.6,0,.91.01.36,0,.72.02,1.08.02,50.77.44,110.12,15.85,120.48,48.66,4.46,14.13-19.79,31.12-37.17,39.1-36.12,16.57-80.14,24.97-130.84,24.97h0Z"/>
          <g>
            <path class="cls-4" d="m476.12,460.9c4.51-16.21,17.95-28.84,32.22-37.24,6.89,2.26,14.15,3.51,21.46,3.75-27.29,19.44-23.06,51.12-28.78,78.55.48-14.61-9.67-30.51-24.89-45.06Z"/>
            <path class="cls-5" d="m204.27,446.37c1.84-9.08,4.55-17.29,8.1-24.66-1.91,24.73,2.18,48.56,10.57,69.04,24.99,61.04,61.79,100.87,127.5,104.81,4.57.27,8.97.4,13.22.4,44.44,0,71.38-13.99,81.86-20.6,110.54-69.52-37.13-162.73-71.46-164.57,24.72.42,64.49,18.61,92.94,42.03,3.3-13.42,18.89-29.71,29.77-34.13-16.27-8.82-28.77-24.27-31.82-46.29,9.52,25.8,31.46,41.64,65.16,41.64.86,0,.56.02.65.02.05,0,.19,0,.64-.02,38.7-1.57,61.27-31.73,87.44-48.36,1.96-1.62,4.15-2.96,6.18-4.49-1.31-.22-2.64-.4-3.87-1-.78-.38-1.2-1.6-.88-2.4,1.03-2.51,3.31-4.16,5.37-5.8.87-.69,1.79-1.38,2.59-2.17-1.61.09-3.71.66-5.2.95-1.63.32-3.34.73-5.03.73-.58,0-1.15-.05-1.71-.16-.83-.17-1.59-1.23-1.47-2.07.18-1.29.82-2.69,1.2-4.06,0,0-8.3,6.68-19.27,6.68-3.4,0-7.05-.64-10.79-2.32-16.57-7.43-22.09-30.1-22.09-30.1l2.77,3.4c3.65,4.23,10.52,11.34,18.16,15.07,10.11-9.4,31.07-10.51,30.98-20.23-.06-6.71-6.89-6.89-9.36-12.29,1.78-5.85,10.45-8.48,15.98-9.8,4.21-1,10.57-2.11,10.57-2.11,16.51-.69,25.13-46.83,10.92-55.66-25.78-16.02-67.97-26.12-108.81-26.13-15.57,0-30.93,1.47-45.13,4.64,6.9.26,13.26,1.07,19.73,1.76-10.65,2.27-21.57,4.26-31,7.75.65.06,1.33.09,2.03.09,3.17,0,6.92-.53,10.65-.53.82,0,1.65.03,2.46.09-31.87,17.01-64.17,37.46-106.03,45.44-43.56,8.3-95.11-4.58-126.81,24.31,9.85-1.07,20.48-4.41,32.06-4.93-25.68,7.31-49.22,15.84-64.82,34.17,8.74-2.77,17.03-9.03,27.47-11.27-36.82,23.3-64.25,80.22-51.43,133.15Zm437.51-198.32c.26,3.27,1.66,5.39,3.17,7.4-1.01.27-1.93.39-2.75.39-6.25,0-6.58-7.11-.42-7.79Zm-73.54-9.05c1.13-.29,10.9-6.02,12.26-6.7,2.42-1.2,5.15-2.56,8.3-2.56h0c2.53,0,4.69.74,6.42,2.19,7.45,6.02,7.19,13.79,7.45,14.23l-5.47-.34c-1.48-.09-14.6-.96-21.05-3.6l-7.91-3.23Zm-54.43-10.57h0c3.49,0,7.26,1.96,10.67,6.94-2.95-2.09-5.57-2.97-7.8-2.97-10.98,0-12.6,21.26.75,23.05-25.77-.2-16.55-27.01-3.63-27.01Z"/>
            <path class="cls-5" d="m586.24,236.54c.08,1.32.69,2.36,1.75,3.14.57.42,1.24.61,1.92.61.53,0,1.06-.12,1.54-.35,1.13-.53,1.66-1.73,1.87-2.91,1.92,2.09,3.21,4.42,3.21,4.42,0,0-11.89-.77-17.07-3,2.4-.64,4.69-2.29,6.97-3.14-.15.38-.22.79-.19,1.23Z"/>
            <path class="cls-5" d="m628.7,328.88c-.29.07-.58.11-.88.11-.82,0-1.69-.26-2.61-.77-.02-2.93-.15-5.68-.42-8.15l5.84-.63c.27,2.5.41,5.18.45,7.99-.62.64-1.42,1.23-2.37,1.46Z"/>
            <path class="cls-5" d="m619.7,308.28l-2.76-1.17c1.28-1.99,4.12-7.44,4.12-7.44,2.78-1.42,9.8-2.24,9.8-2.24-2.71,4.62-6.63,9.72-11.16,10.85Z"/>
            <path class="cls-6" d="m621.16,369.17c1.82-1.66,3.93-2.96,5.94-4.39,1.62.19,3.05,1.25,3.72,1.82,1.52,3.07,3.38,6.04,5.1,8.52-1.28,1.63-2.49,3.3-3.63,5.03-.96-1.31-1.99-2.81-3.04-4.44-.85-1.34-1.71-2.77-2.53-4.26-1.71,10.17-3.28,17.37-3.29,17.4l-5.74-1.25s.03-.13.08-.38c.36-1.68,1.83-8.74,3.37-18.04Z"/>
            <path class="cls-7" d="m630.01,362.46c.23-.21.45-.42.66-.65.85-.88.97-2.67-.31-3.3-1.49-.73-3.14-.84-4.72-1.15.42-.36.86-.69,1.22-.99,1.24-1.04,2.55-2,3.77-3.08,1.66-1.47,4.02-4.57,1.66-6.57-.97-.82-2.19-1.08-3.46-1.08-1.42,0-2.89.32-4.15.54-1.48.27-2.96.58-4.44.85-.24.04-.47.09-.71.13.5-1.71,1.08-3.33.82-5.29-.13-.98-1.15-1.6-2.09-1.6-.15,0-.3.02-.44.05-1.21.28-2.53.83-3.9,1.37,1.82-5.07,5.8-10.86,10.19-10.88,1.25.65,2.48.98,3.68.98.54,0,1.07-.06,1.59-.19,1.47-.36,2.65-1.19,3.56-2.1.83-.45,1.65-.72,2.4-.72,1.89,0,3.36,1.68,3.62,6.29.82-.61,1.6-.87,2.3-.87,3.58,0,5.34,6.74,1.93,8.98.12,0,.24,0,.36,0,5.64,0,4.06,6.87-.71,8.46,6.56,4.23-2.92,10.91-11.36,10.91-.49,0-.98-.03-1.46-.07Z"/>
            <path class="cls-3" d="m387.09,606.74c96.16-9.67,73.31-62.14,232.63-69.85.31-.01.62-.02.93-.02.7,0,1.4.03,2.1.03,53.23.46,119.87,16.83,132.8,57.77,8.23,26.07-28.65,47.76-44.17,54.87-40.47,18.57-86.89,26.16-136.28,26.16-31.66,0-64.54-3.12-97.84-8.47-41.75-6.71-111.13-26.99-168.03-65.04,19.85,4.6,35.88,6.12,50.31,6.12,9.67,0,18.63-.68,27.54-1.58Z"/>
            <path d="m580.49,232.31c-1.36.67-11.14,6.41-12.26,6.7l7.91,3.23c6.45,2.64,19.58,3.51,21.05,3.6l5.47.34c-.26-.44,0-8.21-7.45-14.23-1.73-1.46-3.89-2.19-6.42-2.19h0c-3.15,0-5.89,1.36-8.3,2.56Zm-1.04,6.14c2.4-.64,4.69-2.29,6.97-3.14-.15.38-.22.79-.19,1.23.08,1.32.69,2.36,1.75,3.14.57.42,1.24.61,1.92.61.53,0,1.06-.12,1.54-.35,1.13-.53,1.66-1.73,1.87-2.91,1.92,2.09,3.21,4.42,3.21,4.42,0,0-11.89-.77-17.07-3Z"/>
            <path d="m641.78,248.05c.26,3.27,1.66,5.39,3.17,7.4-1.01.27-1.93.39-2.75.39-6.25,0-6.58-7.11-.42-7.79Z"/>
            <path d="m513.8,228.43h0c3.49,0,7.26,1.96,10.67,6.94-2.95-2.09-5.57-2.97-7.8-2.97-10.98,0-12.6,21.26.75,23.05-25.77-.2-16.55-27.01-3.63-27.01Z"/>
            <path d="m192.05,449.33l13.32,54.99,3.22-15.94c.85,2.4,1.75,4.78,2.71,7.13,20.8,50.82,54.99,92.53,101.62,123.98,7.43,5.01,15.06,9.64,22.75,13.92,0,0,5.61,3.49,12.12,6.42,69.66,31.37,92.47,33,127.48,39.81,24.59,4.79,57.63,7.85,99.84,8.63,2.08.04,4.15.06,6.21.06,23.93,0,46.64-2.52,67.56-6.38,24.47-4.52,47.26-11.58,67.75-20.98,6.1-2.8,21.66-10.6,34.38-22.62,6.82-6.44,11.81-13.2,14.82-20.07,4-9.13,4.57-18.35,1.72-27.39-3.82-12.11-11.47-22.93-22.73-32.17-9.55-7.83-21.71-14.52-36.16-19.9-12.7-4.72-27-8.38-42.51-10.87-14.18-2.28-28.74-3.5-43.27-3.62-1.04,0-2.09-.01-3.14-.01-22.1,0-44.27,2.05-65.9,6.1-17.92,3.35-35.94,8.16-53.65,14.31l8.26-19.95c5.06-12.22,6.58-25.18,8.04-37.7,2.38-20.35,4.43-37.92,20.61-49.44l16.95-12.08c6.89-2.1,13.66-5.15,20.4-9.19,10.84-6.5,20.06-14.55,28.96-22.37l-.71,3.19,12.34,2.68,5.74,1.25,12.15,2.65.62-2.7,9.25-14.01c.93-1.4,1.94-2.81,3.02-4.18l5.74-7.31-3.59-5.17c4.22-2.64,7.59-6.35,8.98-11.07.47-1.6.68-3.24.64-4.88,1.84-3.41,2.52-7.21,1.92-10.86-.31-1.92-.97-3.74-1.94-5.37-.09-1.44-.34-2.9-.77-4.35-1.41-4.75-4.53-8.49-8.49-10.54-1.37-2.12-3.13-3.82-5.16-5.03,0-.08-5.8-1.48-5.8-1.56v-11.17c.32-.5,3.83-.88,4.14-1.4,3.69-1.63,7.66-4.54,11.35-9.6,3.55-4.88,6.44-11.29,8.35-18.55,2.25-8.57,2.99-17.61,2.07-25.46-1.61-13.81-7.81-20.35-12.72-23.4-27.81-17.28-72.05-28.02-115.44-28.02h0c-17.08,0-33.25,1.42-47.87,4.94-15.82,3.81-44.27,16.9-44.27,16.9l19.55-.35-17.98,9.08,12.57,1.92c-19.35,9.87-48.16,22.49-71.64,26.97-13.63,2.6-28.82,2.99-43.52,3.36-15.39.39-31.3.8-46.2,3.69-17.86,3.46-31.99,10.1-43.2,20.31l-15.68,14.28c-7.05,4.75-13.05,10.09-18.19,16.1-6.92,8.09-19.53,30.55-19.53,30.55l11.01-3.49c-3.93,6.47-7.4,13.3-10.37,20.46-5.56,13.4-9.11,27.32-10.54,41.37-1.54,15.11-.59,29.94,2.84,44.1Zm439.42-86.8c-.49,0-.98-.03-1.46-.07.23-.21.45-.42.66-.65.85-.88.97-2.67-.31-3.3-1.49-.73-3.14-.84-4.72-1.15.42-.36.86-.69,1.22-.99,1.24-1.04,2.55-2,3.77-3.08,1.66-1.47,4.02-4.57,1.66-6.57-.97-.82-2.19-1.08-3.46-1.08-1.42,0-2.89.32-4.15.54-1.48.27-2.96.58-4.44.85-.24.04-.47.09-.71.13.5-1.71,1.08-3.33.82-5.29-.13-.98-1.15-1.6-2.09-1.6-.15,0-.3.02-.44.05-1.21.28-2.53.83-3.9,1.37,1.82-5.07,5.8-10.86,10.19-10.88,1.25.65,2.48.98,3.68.98.54,0,1.07-.06,1.59-.19,1.47-.36,2.65-1.19,3.56-2.1.83-.45,1.65-.72,2.4-.72,1.89,0,3.36,1.68,3.62,6.29.82-.61,1.6-.87,2.3-.87,3.58,0,5.34,6.74,1.93,8.98.12,0,.24,0,.36,0,5.64,0,4.06,6.87-.71,8.46,6.56,4.23-2.92,10.91-11.36,10.91Zm-.41-35.11c-.62.64-1.42,1.23-2.37,1.46-.29.07-.58.11-.88.11-.82,0-1.69-.26-2.61-.77-.02-2.93-.15-5.68-.42-8.15l5.84-.63c.27,2.5.41,5.18.45,7.99Zm-11.37-19.14l-2.76-1.17c1.28-1.99,4.12-7.44,4.12-7.44,2.78-1.42,9.8-2.24,9.8-2.24-2.71,4.62-6.63,9.72-11.16,10.85Zm-1.99,79.31s.03-.13.08-.38c.36-1.68,1.83-8.74,3.37-18.04,1.82-1.66,3.93-2.96,5.94-4.39,1.62.19,3.05,1.25,3.72,1.82,1.52,3.07,3.38,6.04,5.1,8.52-1.28,1.63-2.49,3.3-3.63,5.03-.96-1.31-1.99-2.81-3.04-4.44-.85-1.34-1.71-2.77-2.53-4.26-1.71,10.17-3.28,17.37-3.29,17.4l-5.74-1.25Zm-116.7,118.37c.48-14.61-9.67-30.51-24.89-45.06,4.51-16.21,17.95-28.84,32.22-37.24,6.89,2.26,14.15,3.51,21.46,3.75-27.29,19.44-23.06,51.12-28.78,78.55Zm-191.77,96.24c19.85,4.6,35.88,6.12,50.31,6.12,9.67,0,18.63-.68,27.54-1.58,96.16-9.67,73.31-62.14,232.63-69.85.31-.01.62-.02.93-.02.7,0,1.4.03,2.1.03,53.23.46,119.87,16.83,132.8,57.77,8.23,26.07-28.65,47.76-44.17,54.87-40.47,18.57-86.89,26.16-136.28,26.16-31.66,0-64.54-3.12-97.84-8.47-41.75-6.71-111.13-26.99-168.03-65.04Zm-53.54-288.98c-10.44,2.24-18.74,8.5-27.47,11.27,15.59-18.33,39.13-26.86,64.82-34.17-11.58.52-22.21,3.86-32.06,4.93,31.71-28.89,83.26-16,126.81-24.31,41.86-7.98,74.16-28.43,106.03-45.44-.82-.06-1.64-.09-2.46-.09-3.73,0-7.48.53-10.65.53-.71,0-1.39-.03-2.03-.09,9.43-3.49,20.35-5.48,31-7.75-6.47-.69-12.82-1.5-19.73-1.76,14.19-3.17,29.56-4.64,45.13-4.64,40.84,0,83.03,10.11,108.81,26.13,14.21,8.83,5.59,54.97-10.92,55.66,0,0-6.36,1.11-10.57,2.11-5.53,1.32-14.19,3.95-15.98,9.8,2.47,5.4,9.3,5.58,9.36,12.29.09,9.72-20.87,10.83-30.98,20.23-7.64-3.73-14.5-10.84-18.16-15.07l-2.77-3.4s5.52,22.67,22.09,30.1c3.74,1.68,7.39,2.32,10.79,2.32,10.97,0,19.27-6.68,19.27-6.68-.38,1.37-1.01,2.77-1.2,4.06-.12.84.63,1.9,1.47,2.07.56.12,1.14.16,1.71.16,1.69,0,3.4-.41,5.03-.73,1.49-.29,3.59-.86,5.2-.95-.8.79-1.72,1.48-2.59,2.17-2.06,1.64-4.34,3.29-5.37,5.8-.32.79.1,2.01.88,2.4,1.22.6,2.55.78,3.87,1-2.03,1.53-4.21,2.87-6.18,4.49-26.18,16.63-48.74,46.79-87.44,48.36-.44.02-.59.02-.64.02-.1,0,.21-.02-.65-.02-33.71,0-55.64-15.83-65.16-41.64,3.05,22.02,15.55,37.47,31.82,46.29-10.88,4.42-26.47,20.71-29.77,34.13-28.44-23.42-68.22-41.61-92.94-42.03,34.33,1.85,182,95.05,71.46,164.57-10.48,6.61-37.42,20.6-81.86,20.6-4.25,0-8.65-.13-13.22-.4-65.7-3.94-102.51-43.76-127.5-104.81-8.39-20.49-12.47-44.31-10.57-69.04-3.55,7.37-6.26,15.58-8.1,24.66-12.82-52.93,14.61-109.86,51.43-133.15Z"/>
          </g>
        </g>
      </g>
      <g>
        <g>
          <path class="cls-9" d="m1440.49,151.47c-1.8-16.18,17.38-55.74,84.51-74.32,88.11-24.58,184.01-10.19,223.57,27.57,38.96,37.16,19.78,81.51-8.39,105.49-37.16,31.77-70.73,51.55-113.28,63.53,44.95-5.39,107.29,6.59,124.67,39.56,14.39,27.57,12.59,67.73-53.34,125.27-66.53,58.14-177.41,86.31-229.56,82.11-46.15-3.6-78.52-56.34-64.73-72.53,9.59-11.38,32.37-21.57,59.34-29.96-1.2-3-1.2-6.59.6-10.79,9.59-29.97,27.57-75.52,51.55-124.07,19.78-46.15,78.52-172.62,94.1-195.4-79.12,9.59-151.64,52.15-151.64,78.52.6,12.58-14.98,6.59-17.38-14.98Zm62.34,257.73c31.17-5.99,62.34-7.19,79.12-1.8,4.8,3,3,10.19-.6,11.39-38.96-4.8-161.83,39.56-147.45,67.13,8.39,16.18,158.84-7.19,228.96-70.72,55.74-50.35,65.33-100.1,28.17-115.68-46.15-20.38-106.69-11.99-137.86-5.39-.6.6-1.2,1.8-1.2,2.4l-49.15,112.68Zm61.74-140.85c13.19-3,31.17-8.39,53.34-15.59,71.33-23.38,110.88-74.92,105.49-117.48-3.6-29.37-29.97-49.15-83.31-49.15,7.19,6.59,11.99,15.59,11.39,22.18-17.98,13.19-46.15,70.72-86.91,160.03Z"/>
          <path class="cls-9" d="m1834.88,376.83c-4.2,11.39-6.59,22.18-7.19,31.77-.6,16.78,7.19,35.36,26.97,37.76,56.34,6.59,128.27-97.7,154.64-130.66,6.59-7.19,14.98-4.8,15.58,2.4-19.18,38.36-72.52,115.68-123.47,142.65-35.36,18.58-94.7,1.8-109.08-38.36-22.18-62.33,47.35-163.63,97.7-187.6,41.36-19.78,87.51,22.18,83.31,48.55-4.8,30.57-89.91,73.72-138.46,93.5Zm10.19-24.58c53.94-29.37,118.08-83.31,91.7-97.7-15.58-7.79-64.73,44.36-91.7,97.7Z"/>
          <path class="cls-9" d="m2153.74,304.91c7.19,7.79,12.59,17.98,7.79,23.97-8.99,11.99-13.19,20.98-27.57,50.35-15.58,34.76-16.78,67.73,4.79,64.73,28.17-3.6,103.69-101.89,118.08-125.87,4.8-4.79,13.19-1.2,13.78,5.4-12.59,23.97-70.72,108.49-105.49,132.46-29.37,20.38-55.74,4.8-72.52-11.99-10.79-10.79-7.79-44.95,3-67.13-16.78,25.17-59.94,75.52-86.31,88.71-16.78,7.79-51.55-11.99-55.14-32.97-4.8-27.57,19.78-88.71,62.34-136.06,44.35-49.15,79.12-63.54,106.69-69.53,31.17-6.59,78.52,25.17,70.72,45.55-7.19,15.59-30.57,31.17-40.16,32.37Zm-4.2-3.6c1.8-10.79,23.98-43.75,8.99-52.14-16.78-8.99-77.32,26.97-108.49,70.13-50.95,70.13-65.33,119.88-52.15,122.28,22.18,4.19,110.88-99.5,133.66-140.86,3.6-6,10.79-4.19,17.98.6Z"/>
          <path class="cls-9" d="m2272.42,430.18c14.38,1.8,133.66-190,180.41-204.39,14.38-4.19,23.98,3.6,18.58,11.99-40.16,11.39-174.42,213.38-187.6,231.36-14.98,17.38-58.14-11.99-56.34-30.57,5.39-37.16,40.16-154.64,30.57-176.22,1.8-17.38,40.16-10.79,42.56,8.39,3,24.58-28.77,127.67-28.17,159.44Z"/>
          <path class="cls-9" d="m2467.81,376.83c-4.2,11.39-6.59,22.18-7.19,31.77-.6,16.78,7.19,35.36,26.97,37.76,56.34,6.59,128.27-97.7,154.64-130.66,6.59-7.19,14.98-4.8,15.58,2.4-19.18,38.36-72.52,115.68-123.47,142.65-35.36,18.58-94.7,1.8-109.08-38.36-22.18-62.33,47.35-163.63,97.7-187.6,41.36-19.78,87.51,22.18,83.31,48.55-4.8,30.57-89.91,73.72-138.46,93.5Zm10.19-24.58c53.94-29.37,118.08-83.31,91.7-97.7-15.58-7.79-64.73,44.36-91.7,97.7Z"/>
          <path class="cls-9" d="m2752.51,255.76c18.58,4.8,33.57,16.78,15.58,38.36-31.77,38.36-80.92,155.84-49.75,160.03,18.58,2.4,65.93-41.96,86.31-73.12,4.8-6.59,14.98-4.19,9.59,6.59-13.18,29.97-50.35,82.11-68.93,88.11-22.78,7.19-71.33-11.39-74.92-52.14-3.6-40.16,40.76-118.68,53.34-141.45,7.79-12.59-10.19-13.78-27.57-16.78-16.18,25.17-50.95,77.32-64.73,94.1-7.19,6.59-19.18,1.2-16.18-6.59,11.39-17.98,47.35-69.52,59.94-92.9-3-1.8-6-4.2-6.59-7.2-6.59-19.18,20.98-72.52,34.76-77.92,8.99-3.6,26.97,10.79,25.18,22.18-1.8,10.79-14.98,40.16-23.98,53.94,0,1.2,38.36,2.4,47.95,4.8Z"/>
          <path class="cls-9" d="m3106.74,120.9c-5.4-28.17-15.58-40.76-40.16-38.36-69.53,7.79-122.27,111.48-109.69,142.65,3,5.99-3.6,10.19-10.19,4.8-50.95-46.15,28.77-189.4,149.84-163.63,33.56,7.19,61.14,29.37,61.14,71.92,0,94.1-31.77,303.28-31.77,303.28,0,0,46.15-63.54,103.09-134.86,93.5-117.48,151.04-172.62,161.23-182.21,17.98-17.38,40.76-3.6,41.96,14.39-31.17,46.75-133.66,261.93-144.45,330.85-1.8,9.59-8.39,55.74,9.59,55.74,4.8,3.6,3.6,13.78-13.19,13.19-28.17-1.2-44.95-35.36-36.56-78.52,19.18-96.5,106.69-261.33,110.88-269.12-.6.6-32.36,29.97-116.28,134.26-56.94,70.72-111.49,151.04-112.09,155.24-1.8,8.99-50.35,20.98-50.94-6.59-.6-26.37,31.77-206.78,31.77-300.88-17.98,32.96-47.95,88.1-74.32,145.04-44.36,90.51-89.31,188.81-89.91,201.39-9.59,8.39-33.56,8.99-27.57-11.99,8.39-28.77,67.73-151.64,90.5-197.8,19.18-40.76,83.31-165.43,97.1-188.8Z"/>
          <path class="cls-9" d="m3429.2,376.83c-4.2,11.39-6.59,22.18-7.19,31.77-.6,16.78,7.19,35.36,26.97,37.76,56.34,6.59,128.27-97.7,154.64-130.66,6.59-7.19,14.98-4.8,15.59,2.4-19.18,38.36-72.53,115.68-123.47,142.65-35.36,18.58-94.7,1.8-109.09-38.36-22.18-62.33,47.35-163.63,97.7-187.6,41.36-19.78,87.51,22.18,83.31,48.55-4.8,30.57-89.91,73.72-138.46,93.5Zm10.19-24.58c53.94-29.37,118.08-83.31,91.7-97.7-15.58-7.79-64.73,44.36-91.7,97.7Z"/>
          <path class="cls-9" d="m3748.06,304.91c7.19,7.79,12.58,17.98,7.79,23.97-8.99,11.99-13.19,20.98-27.57,50.35-15.59,34.76-16.78,67.73,4.8,64.73,28.17-3.6,103.69-101.89,118.07-125.87,4.8-4.79,13.19-1.2,13.79,5.4-12.59,23.97-70.73,108.49-105.49,132.46-29.37,20.38-55.74,4.8-72.52-11.99-10.79-10.79-7.79-44.95,3-67.13-16.78,25.17-59.94,75.52-86.31,88.71-16.78,7.79-51.55-11.99-55.14-32.97-4.8-27.57,19.78-88.71,62.33-136.06,44.36-49.15,79.12-63.54,106.69-69.53,31.17-6.59,78.52,25.17,70.73,45.55-7.2,15.59-30.57,31.17-40.16,32.37Zm-4.2-3.6c1.8-10.79,23.97-43.75,8.99-52.14-16.79-8.99-77.32,26.97-108.49,70.13-50.94,70.13-65.33,119.88-52.14,122.28,22.18,4.19,110.89-99.5,133.66-140.86,3.6-6,10.79-4.19,17.98.6Z"/>
          <path class="cls-9" d="m4020.77,280.93c-35.96,73.12-68.93,181.01-31.77,160.64,23.98-11.99,99.5-106.69,115.08-128.87,5.39-3.6,13.19-1.2,11.99,8.99-10.79,22.18-83.31,122.27-111.48,137.85-19.18,11.39-66.53,4.2-71.33-32.96-1.8-11.99-.6-26.37,4.19-46.75-25.17,34.16-58.14,71.32-77.92,80.91-11.39,6-45.56-2.4-53.95-26.97-13.78-39.56,52.15-166.03,107.89-191.2,29.37-13.19,58.74,0,74.92,12.59,24.58-47.35,50.35-104.89,81.52-154.64,12.58-15.58,55.74-16.18,48.55-4.19-8.99,16.18-31.17,44.95-97.7,184.6Zm-61.13,34.76l20.98-44.95c-10.19-8.99-23.38-16.18-38.96-9.59-44.36,18.58-118.68,176.22-95.3,177.42,16.18,1.2,86.31-75.52,113.28-122.87Z"/>
          <path class="cls-9" d="m4226.95,258.16c19.78,0,41.36,9.59,40.16,43.75-.6,19.78-16.78,65.33-42.56,104.29h3.6c48.55-2.99,99.5-86.91,106.09-95.9,4.8-7.79,13.78-4.2,11.39,7.79-6,9.59-32.97,67.73-79.12,94.7-17.98,10.19-37.76,14.98-55.74,12.59-16.18,20.38-35.36,37.16-55.74,44.95-33.56,12.58-89.3-19.18-91.7-59.94-4.19-67.13,50.95-168.42,113.88-178.02,17.38-2.4,44.95,7.19,50.94,20.98,1.2,2.99.6,4.19-1.2,4.8Zm-2.99,0c-6.59-.6-19.18-4.8-31.77-1.8-38.36,8.99-97.7,103.7-94.1,173.22,1.8,30.57,28.17,24.58,43.16,13.79,11.99-8.39,24.58-19.78,35.96-33.57-3.6-3.6-7.79-8.39-10.79-13.18-29.97-43.76-2.4-104.29,33.56-131.26,4.8-3.6,13.79-6.59,23.98-7.19Zm-34.76,136.65c25.77-34.16,46.75-76.12,49.75-110.28,1.8-18.58-23.98-13.19-43.16,11.99-24.58,31.77-29.97,77.32-6.59,98.29Z"/>
          <path class="cls-9" d="m4478.09,416.99c13.79,1.8,127.07-177.42,166.63-190,19.18-6,25.17,4.8,19.18,11.99-38.36,11.39-161.83,199.59-176.82,216.38-13.19,17.38-51.55-11.39-50.95-29.97,4.8-24.58,11.39-81.52,20.98-124.67-49.15,62.94-94.1,143.85-103.69,154.64-13.19,16.78-53.34-11.99-52.75-30.57,7.79-37.16,34.76-155.84,33.56-178.01,7.79-14.98,37.76-10.19,39.56,8.39,2.4,19.78-25.78,129.46-29.37,161.23,11.39,1.8,82.72-110.28,119.88-161.23,7.79-10.19,41.96-6.59,41.96,2.4-1.2,19.78-24.57,127.67-28.17,159.44Z"/>
          <path class="cls-9" d="m4702.85,297.12c2.4,20.38,14.98,41.36,22.78,61.74,41.96-6,90.5-8.39,104.29-3.6,7.19,2.4,6.59,7.19,3,10.19-5.39-1.8-52.75,3.6-101.89,12.58.6,4.8.6,9.59,0,14.39-8.39,49.75-61.14,71.92-106.09,71.92s-62.94-13.78-68.93-29.97c-1.2-3.6-4.2-15.58,5.39-25.17,4.8-4.8,9.59-6.59,19.78-11.39,22.18-28.77,61.74-83.91,86.91-118.68,0-5.99,1.2-11.99,3.6-17.98,5.39-16.78,29.37-37.76,54.54-48.55,17.98-8.39,46.75,12.59,29.97,16.78-26.97,6.59-55.74,38.96-53.34,67.73Zm-6,88.11c-53.94,12.58-104.29,36.56-114.48,51.55,4.19,4.19,11.99,6.59,31.16,4.8,28.17-3,77.92-26.37,83.31-56.34Zm-26.37-77.32c-16.18,23.98-35.96,52.75-53.94,77.32,25.17-7.79,54.54-15.59,76.12-20.38h.6c-5.99-14.39-17.38-34.76-22.78-56.94Z"/>
        </g>
        <g>
          <path class="cls-9" d="m1154.2,713.72c0-83.23,66.66-121.37,133.7-121.37,30.05,0,57.79,7.71,69.35,10.41,1.16,12.71,2.7,33.13,5.78,55.87l-10.79,1.93c-9.25-44.69-35.83-54.71-68.97-54.71-55.48,0-95.94,38.14-95.94,104.03,0,50.86,31.21,109.42,100.95,109.42,13.1,0,24.27-2.7,32.36-6.93,8.09-3.85,12.33-7.71,12.33-23.51v-26.97c0-25.81-2.7-27.74-37.76-30.82v-10.41h88.62v10.41c-21.96,3.47-23.5,4.62-23.5,25.04v30.05c0,11.94.38,23.51,2.7,33.52-22.73,5.39-52.01,13.1-80.14,13.1-77.06,0-128.69-48.93-128.69-119.06Z"/>
          <path class="cls-9" d="m1408.89,715.25c0-65.11,45.08-122.91,118.67-122.91,58.95,0,114.05,45.08,114.05,117.13,0,77.44-53.56,123.3-118.67,123.3s-114.05-48.55-114.05-117.52Zm198.82,3.47c0-75.52-41.61-112.51-88.23-112.51-39.3,0-77.45,30.83-77.45,98.64s38.53,114.05,89,114.05c40.07,0,76.68-31.21,76.68-100.17Z"/>
          <path class="cls-9" d="m1669.36,816.97c30.05-1.54,32.75-3.85,32.75-33.9v-141.41c0-29.67-2.31-31.59-32.36-33.9v-10.79h92.47v10.79c-29.28,1.92-33.14,3.85-33.14,33.9v139.09c0,19.27,2.31,26.2,8.86,30.05,6.93,3.85,19.65,4.62,35.06,4.62,19.65,0,31.6-1.93,39.69-10.79,6.55-6.93,13.1-17.72,18.49-34.29l11.56,1.92c-1.93,10.79-9.63,45.08-13.1,55.87h-160.28v-11.18Z"/>
          <path class="cls-9" d="m1863.17,816.97c29.28-1.54,31.98-3.85,31.98-33.9v-141.41c0-30.05-2.7-31.59-30.82-33.9v-10.79h156.04c.39,14.26,1.93,35.83,3.47,53.17l-11.56.77c-3.08-15.03-4.62-21.19-9.25-28.9-5.39-9.63-12.71-12.33-38.91-12.33h-30.44c-10.4,0-11.56,1.16-11.56,11.18v83.99h38.14c31.98,0,33.13-2.7,37.76-25.81h11.56v68.96h-11.56c-4.62-25.43-5.78-28.89-37.76-28.89h-38.14v63.96c0,30.05,3.47,31.98,36.99,33.9v11.18h-95.94v-11.18Z"/>
          <path class="cls-9" d="m2312.05,820.44c-4.62-5.01-19.27-22.73-30.44-34.68-26.2,35.45-50.86,47.39-76.67,47.39-45.08,0-70.12-33.52-70.12-64.73,0-33.14,23.12-47.39,53.56-70.13-15.8-14.64-25.82-29.28-25.82-48.16,0-32.36,26.58-55.48,58.18-55.48,27.74,0,51.63,20.42,51.24,48.93,0,14.64-7.71,25.04-14.64,31.21-6.55,5.78-14.26,12.71-27.74,21.96,11.94,10.02,36.99,31.6,58.95,54.71,8.86-13.1,14.64-25.43,21.58-42.38,6.55-16.18,1.93-19.65-22.73-22.35v-11.18h82.45v11.18c-25.04,2.31-29.28,8.86-41.23,26.58-8.86,13.49-17.34,28.51-30.44,47.78,13.87,13.87,47.01,50.86,57.02,70.12l-2.7,4.24c-16.57-2.31-36.22-10.4-40.46-15.03Zm-39.69-45.08c-16.57-19.27-39.69-41.23-73.98-68.58-25.43,17.72-35.45,34.29-35.45,52.78,0,33.14,26.2,50.09,49.7,50.09,25.43,0,47.39-16.95,59.72-34.29Zm-25.43-131c0-20.03-13.1-36.99-30.05-36.99s-30.05,14.26-30.05,35.83c0,17.72,11.17,30.44,32.75,45.85,17.72-13.1,27.36-26.97,27.36-44.7Z"/>
          <path class="cls-9" d="m2462.71,716.03c0-75.52,57.79-123.68,136.01-123.68,28.51,0,52.4,7.71,62.42,9.63,2.7,20.42,5.01,34.68,6.94,53.94l-11.17,2.7c-8.86-36.22-28.13-52.78-68.58-52.78-60.1,0-92.47,48.93-92.47,102.49,0,66.66,40.84,110.97,94.4,110.97,36.22,0,53.94-18.11,72.44-55.1l11.17,3.85c-4.62,17.34-13.87,43.92-20.04,55.1-10.4,2.31-39.3,9.63-66.27,9.63-86.31,0-124.84-60.88-124.84-116.74Z"/>
          <path class="cls-9" d="m2701.6,715.25c0-65.11,45.08-122.91,118.67-122.91,58.95,0,114.05,45.08,114.05,117.13,0,77.44-53.56,123.3-118.67,123.3s-114.05-48.55-114.05-117.52Zm198.82,3.47c0-75.52-41.61-112.51-88.23-112.51-39.3,0-77.45,30.83-77.45,98.64s38.53,114.05,89,114.05c40.07,0,76.68-31.21,76.68-100.17Z"/>
          <path class="cls-9" d="m3022.95,815.43c-20.81-15.8-31.21-42.77-31.21-85.15v-87.85c0-30.44-3.08-31.98-31.98-34.68v-10.79h90.54v10.79c-28.51,1.92-31.21,3.85-31.21,34.68v79.76c0,62.03,26.2,90.93,68.2,90.93,49.7,0,67.81-40.46,67.81-102.88v-22.35c0-34.29-.77-49.7-2.31-60.88-1.92-13.48-9.63-17.34-35.45-19.26v-10.79h87.08v10.79c-21.57,1.54-30.44,5.78-31.6,20.03-1.15,10.02-1.92,25.81-1.92,60.49v24.27c0,43.54-6.94,73.98-27.36,95.55-16.95,17.34-41.23,24.66-64.35,24.66-20.04,0-40.07-4.62-56.25-17.34Z"/>
          <path class="cls-9" d="m3275.71,645.13h-.77v88.23c0,32.36,1.15,49.7,1.54,60.1,2.31,18.11,11.17,22.35,35.06,23.5v11.18h-86.31v-11.18c20.8-.77,30.05-5.39,31.98-22.73,1.15-11.17,2.31-28.51,2.31-60.87v-77.83c0-26.2-.77-26.2-6.94-34.68-7.32-8.86-15.8-11.56-32.75-13.1v-10.79h51.24l148.73,181.09h1.15v-89.39c0-33.9-1.15-49.7-2.31-59.34-1.93-15.8-10.79-20.42-35.45-21.57v-10.79h86.69v10.79c-20.42,1.15-29.67,5.78-31.6,20.42-.77,10.79-1.54,26.59-1.54,60.49v142.18h-11.18l-149.88-185.71Z"/>
          <path class="cls-9" d="m3539.26,816.97c33.13-1.54,36.22-5.01,36.22-33.13v-174.16h-25.04c-26.97,0-34.29,2.7-38.92,10.79-3.85,5.78-6.55,15.8-10.79,31.21h-11.56c1.54-20.8,3.47-43.54,4.24-63.57h7.71c5.39,8.09,9.63,8.86,19.65,8.86h139.48c9.63,0,11.56-2.31,16.95-8.86h8.09c.38,16.95,1.93,42.38,3.85,62.42l-11.56,1.15c-3.47-16.95-6.55-25.43-10.41-30.82-5.78-8.47-10.4-11.18-37.37-11.18h-26.97v174.16c0,27.74,2.7,31.6,37.37,33.13v11.18h-100.94v-11.18Z"/>
          <path class="cls-9" d="m3908,830.46c-21.96-1.16-36.99-8.48-54.71-31.98-12.33-17.34-25.82-40.07-36.22-57.02-6.17-9.63-11.94-13.49-31.98-13.49h-12.71v55.1c0,30.05,3.08,32.36,32.36,33.9v11.18h-92.47v-11.18c30.44-1.54,33.14-3.47,33.14-33.9v-141.79c0-30.44-2.7-31.21-31.21-33.52v-10.79h87.08c24.66,0,42.38,3.08,55.48,11.56,14.64,9.25,24.27,25.43,24.27,46.62,0,30.82-18.5,50.09-45.47,62.03,6.55,11.56,21.58,35.06,31.98,50.86,13.49,18.88,19.65,26.2,28.51,35.83,9.63,10.79,19.27,15.03,27.36,17.34l-1.54,9.63c-5.01,0-9.24,0-13.87-.38Zm-116.74-114.82c18.88,0,30.05-3.47,39.3-10.79,13.87-10.79,20.04-24.66,20.04-43.92,0-38.14-26.59-51.63-54.72-51.63-10.4,0-16.56,1.54-19.26,3.47-3.09,2.31-4.24,6.55-4.24,16.18v86.69h18.88Z"/>
          <path class="cls-9" d="m3967.35,816.97c32.75-1.54,35.45-3.85,35.45-33.52v-47.39c0-6.55-1.54-9.63-7.71-21.19l-45.46-77.06c-14.26-23.89-18.11-28.13-39.69-30.05v-10.79h82.84v10.79c-26.2,3.47-25.04,7.71-17.72,19.65,15.03,27.74,32.36,56.25,48.55,83.22,13.87-24.66,31.6-57.41,42-79.37,8.47-18.11,7.71-20.42-20.81-23.5v-10.79h79.76v10.79c-24.66,3.08-28.9,5.78-43.54,29.67-15.8,25.43-28.13,46.62-45.46,77.83-4.24,7.71-5.4,11.56-5.4,20.42v47.78c0,28.9,3.09,31.98,36.99,33.52v11.18h-99.79v-11.18Z"/>
          <path class="cls-9" d="m4225.12,716.03c0-75.52,57.79-123.68,136.01-123.68,28.51,0,52.4,7.71,62.42,9.63,2.7,20.42,5.01,34.68,6.94,53.94l-11.18,2.7c-8.86-36.22-28.13-52.78-68.58-52.78-60.11,0-92.47,48.93-92.47,102.49,0,66.66,40.84,110.97,94.4,110.97,36.22,0,53.94-18.11,72.44-55.1l11.17,3.85c-4.62,17.34-13.87,43.92-20.03,55.1-10.4,2.31-39.3,9.63-66.27,9.63-86.31,0-124.83-60.88-124.83-116.74Z"/>
          <path class="cls-9" d="m4458.62,816.97c30.05-1.54,32.75-3.85,32.75-33.9v-141.41c0-29.67-2.31-31.59-32.36-33.9v-10.79h92.47v10.79c-29.28,1.92-33.13,3.85-33.13,33.9v139.09c0,19.27,2.31,26.2,8.86,30.05,6.94,3.85,19.65,4.62,35.07,4.62,19.65,0,31.59-1.93,39.69-10.79,6.55-6.93,13.1-17.72,18.49-34.29l11.56,1.92c-1.93,10.79-9.63,45.08-13.1,55.87h-160.28v-11.18Z"/>
          <path class="cls-9" d="m4698.66,815.43c-20.8-15.8-31.21-42.77-31.21-85.15v-87.85c0-30.44-3.08-31.98-31.98-34.68v-10.79h90.55v10.79c-28.51,1.92-31.21,3.85-31.21,34.68v79.76c0,62.03,26.2,90.93,68.2,90.93,49.7,0,67.81-40.46,67.81-102.88v-22.35c0-34.29-.77-49.7-2.31-60.88-1.93-13.48-9.63-17.34-35.45-19.26v-10.79h87.08v10.79c-21.58,1.54-30.44,5.78-31.6,20.03-1.15,10.02-1.93,25.81-1.93,60.49v24.27c0,43.54-6.93,73.98-27.36,95.55-16.95,17.34-41.22,24.66-64.34,24.66-20.03,0-40.07-4.62-56.25-17.34Z"/>
          <path class="cls-9" d="m4900.95,816.97c31.98-1.92,33.52-3.85,33.52-33.13v-142.95c0-28.9-1.16-30.82-30.44-33.13v-10.79h90.54c26.59,0,41.61,4.24,52.4,11.94,12.71,8.48,19.65,24.66,19.65,41.23,0,33.13-27.74,47.01-45.08,52.4v.38c33.14,5.78,60.49,20.42,60.49,56.64,0,23.89-13.1,42.38-34.68,54.33-18.5,10.02-41.23,14.26-68.97,14.26h-77.45v-11.18Zm79.76-118.29c38.91,0,56.25-15.41,56.25-45.08,0-22.73-13.1-44.69-49.32-44.69-9.24,0-18.11,1.16-21.57,3.47-3.09,1.92-4.62,5.78-4.62,17.72v68.58h19.27Zm68.97,64.35c0-36.99-26.59-51.25-69.35-51.25h-18.88v71.67c0,25.43,6.55,31.98,30.44,31.98,31.21-.38,57.8-14.64,57.8-52.4Z"/>
        </g>
      </g>
    </g>
  </g>
</svg>